<?xml version="1.0"?><svg width="1024" height="768" xmlns="http://www.w3.org/2000/svg">
 <defs>
  <filter height="1.263641" y="-0.13182" width="1.130966" x="-0.065483" id="filter3802">
   <feGaussianBlur id="feGaussianBlur3804" stdDeviation="8.688477"/>
  </filter>
 </defs>
 <metadata id="metadata4093">image/svg+xml</metadata>
 <g>
  <title>Layer 1</title>
  <g id="layer1">
   <g id="g3885">
    <path fill="#f0f4f8" fill-rule="nonzero" stroke-width="3" stroke-linecap="round" stroke-linejoin="bevel" stroke-miterlimit="4" stroke-dashoffset="0" d="m695.233643,133.89241c-90.898193,0 -168.960999,41.132965 -202.835175,99.800766c-24.908905,-10.103073 -53.491669,-15.905045 -83.808228,-15.905045c-97.110504,0 -175.918671,58.961807 -175.918671,131.523727c0,6.294037 0.601318,12.468262 1.747818,18.526947c-119.938904,3.47467 -215.419346,62.249725 -215.419346,134.233002c0,74.215851 101.544407,134.495209 226.692829,134.495209c25.952301,0 50.878784,-2.660156 74.107819,-7.428284c47.2099,31.471985 115.960022,51.298706 192.52298,51.298706c110.009949,0 203.997253,-40.908875 240.937805,-98.48999c25.704102,11.341614 55.6604,17.915222 87.653442,17.915222c95.358093,0 172.772583,-57.824707 172.772583,-129.076935c0,-54.35379 -45.109924,-100.881958 -108.802124,-119.900848c7.253418,-16.337372 11.273438,-33.761719 11.273438,-51.910431c0,-91.099426 -99.005127,-165.082047 -220.925171,-165.082047z" id="path2740"/>
    <path fill="#ffffff" fill-rule="nonzero" stroke="#ffffff" stroke-width="3" stroke-linecap="round" stroke-linejoin="bevel" stroke-miterlimit="4" stroke-dashoffset="0" filter="url(#filter3802)" id="path2782" d="m704.650085,179.52594c-75.192566,0 -135.916504,35.959473 -157.741272,73.758255c-12.998108,22.498978 -40.594147,31.971207 -64.669586,22.197372c-18.488037,-7.498566 -40.558594,-12.059998 -64.232574,-12.059998c-38.018646,0 -71.47876,11.927216 -93.159119,28.140015c-21.680389,16.212769 -30.674347,33.865662 -30.674347,51.298676c0,2.977631 0.222748,5.848389 0.78653,8.826508c2.824158,14.968658 -1.048187,30.423096 -10.596893,42.291595c-9.54834,11.868317 -23.815308,18.960144 -39.041367,19.406677c-51.87561,1.502869 -97.6427,15.595917 -126.717369,33.64563c-29.074669,18.049713 -38.102768,35.616913 -38.102768,48.589569c0,13.363525 9.855415,31.916077 40.899292,50.337341c31.043877,18.421326 79.493126,32.072632 133.708504,32.072632c22.394699,0 43.841568,-2.319641 63.621017,-6.379578c13.60965,-2.7854 27.768066,-0.016541 39.325928,7.69043c36.196716,24.130066 96.108887,42.55957 163.684052,42.55957c97.102966,0 175.833984,-41.311157 197.154724,-74.544739c13.855591,-21.537537 41.315918,-29.801453 64.756958,-19.488281c18.833313,8.309998 41.817932,13.458252 66.679565,13.458252c37.155457,0 69.864868,-11.671143 90.974304,-27.440857c21.109436,-15.769684 29.713013,-32.779755 29.713013,-49.550873c0,-25.548462 -23.729431,-55.713989 -71.573425,-70.000397c-14.345825,-4.281677 -26.154785,-14.531372 -32.411255,-28.132324c-6.256836,-13.601135 -6.356323,-29.237183 -0.273071,-42.916809c4.577576,-10.310303 6.729126,-20.300903 6.729126,-30.761719c0,-26.689697 -13.952393,-52.691147 -43.783081,-74.981735c-29.830627,-22.290588 -74.627686,-38.015213 -125.056885,-38.015213z"/>
    <path fill="#e4eaed" fill-rule="nonzero" stroke-width="0.5" stroke-linejoin="round" stroke-miterlimit="4" stroke-dashoffset="0" id="path3810" d="m328.58725,626.980957c0,0 105.308563,-55.161316 116.652008,-58.995972c-24.718079,23.729309 -87.458191,74.984985 -87.458191,74.984985l-29.193817,-15.989014z"/>
    <path fill="#e4eaed" fill-rule="nonzero" stroke-width="0.5" stroke-linejoin="round" stroke-miterlimit="4" stroke-dashoffset="0" d="m760.64978,572.448608c0,0 45.18335,-59.355896 56.526794,-63.190552c-24.718079,23.729309 -27.332825,79.179932 -27.332825,79.179932l-29.19397,-15.98938z" id="path3812"/>
    <path fill="#e4eaed" fill-rule="nonzero" stroke-width="0.5" stroke-linejoin="round" stroke-miterlimit="4" stroke-dashoffset="0" id="path3814" d="m931.833923,365.84552c0,0 -45.183289,59.35611 -56.526794,63.190735c24.718079,-23.729279 27.333008,-79.180084 27.333008,-79.180084l29.193787,15.989349z"/>
    <path fill="#e4eaed" fill-rule="nonzero" stroke-width="0.5" stroke-linejoin="round" stroke-miterlimit="4" stroke-dashoffset="0" d="m391.770813,449.716919c0,0 245.028076,-159.353394 316.21582,-16.977783c-84.351379,-119.407227 -312.260834,16.977783 -316.21582,16.977783z" id="path3816"/>
    <path fill="#eeeeec" fill-rule="nonzero" stroke-width="0.5" stroke-linejoin="round" stroke-miterlimit="4" stroke-dashoffset="0" d="m702.615967,418.051422c0,0 -98.066467,-71.14743 -99.276672,-93.683472c-44.744324,18.177399 102.073242,95.081726 99.276672,93.683472z" id="path3820"/>
   </g>
  </g>
 </g>
</svg>