<?xml version="1.0"?><svg width="800" height="600" xmlns="http://www.w3.org/2000/svg" xmlns:xlink="http://www.w3.org/1999/xlink">
 <title>Bosque</title>
 <defs>
  <linearGradient id="linearGradient5963">
   <stop stop-color="#2e3436" id="stop5965" offset="0"/>
   <stop stop-color="#2e3436" stop-opacity="0" id="stop5967" offset="1"/>
  </linearGradient>
  <linearGradient id="linearGradient5955">
   <stop stop-color="#2e3436" id="stop5957" offset="0"/>
   <stop stop-color="#2e3436" stop-opacity="0" id="stop5959" offset="1"/>
  </linearGradient>
  <linearGradient id="linearGradient5791">
   <stop stop-color="#eeeeec" id="stop5793" offset="0"/>
   <stop stop-color="#eeeeec" stop-opacity="0" id="stop5795" offset="1"/>
  </linearGradient>
  <linearGradient id="linearGradient5714">
   <stop stop-color="#64629b" id="stop5716" offset="0"/>
   <stop stop-color="#babdb6" stop-opacity="0" id="stop5718" offset="1"/>
  </linearGradient>
  <linearGradient id="linearGradient5699">
   <stop stop-color="#e9b96e" id="stop5701" offset="0"/>
   <stop stop-color="#b3781b" id="stop5703" offset="1"/>
  </linearGradient>
  <linearGradient y2="818.31488" x2="516.32629" y1="803.31488" x1="411" gradientTransform="translate(-180,-38)" gradientUnits="userSpaceOnUse" id="linearGradient5785" xlink:href="#linearGradient5699"/>
  <linearGradient y2="665.66248" x2="297" y1="629.36218" x1="277" gradientTransform="translate(-6.1568543,-18.324116)" gradientUnits="userSpaceOnUse" id="linearGradient5787" xlink:href="#linearGradient5714"/>
  <radialGradient gradientUnits="userSpaceOnUse" gradientTransform="matrix(1,0,0,0.7377049,0,139.50483)" r="91.5" fy="531.86218" fx="218.5" cy="531.86218" cx="218.5" id="radialGradient5801" xlink:href="#linearGradient5791"/>
  <radialGradient r="91.5" fy="531.86218" fx="218.5" cy="531.86218" cx="218.5" gradientTransform="matrix(1,0,0,0.7377049,0,139.50483)" gradientUnits="userSpaceOnUse" id="radialGradient5941" xlink:href="#linearGradient5791"/>
  <radialGradient r="91.5" fy="531.86218" fx="218.5" cy="531.86218" cx="218.5" gradientTransform="matrix(1,0,0,0.7377049,0,139.50483)" gradientUnits="userSpaceOnUse" id="radialGradient5945" xlink:href="#linearGradient5791"/>
  <radialGradient gradientUnits="userSpaceOnUse" gradientTransform="matrix(1,0,0,0.7377049,0,139.50483)" r="91.5" fy="558.97327" fx="218.5" cy="558.97327" cx="218.5" id="radialGradient5961" xlink:href="#linearGradient5955"/>
  <radialGradient gradientUnits="userSpaceOnUse" gradientTransform="matrix(1,0,0,0.7377049,0,139.50483)" r="91.5" fy="499.64572" fx="204.24026" cy="499.64572" cx="204.24026" id="radialGradient5969" xlink:href="#linearGradient5963"/>
  <linearGradient y2="0.541583" x2="0.633766" y1="0.5" x1="0.105355" id="linearGradient6020" xlink:href="#linearGradient5699"/>
 </defs>
 <metadata id="metadata4">image/svg+xml</metadata>
 <g>
  <title>Layer 1</title>
  <g id="svg_121">
   <g id="svg_91">
    <g id="svg_92" transform="matrix(-0.517189 0 0 0.733555 -647.109 505.22)">
     <g id="svg_93" transform="matrix(0.554271 0 0 0.554271 12.9915 426.279)">
      <path id="svg_94" fill="#3e671e" fill-rule="evenodd" stroke-width="1.83768px" d="m-2603.311279,-1267.783936c-21.80835,0.97644 -46.19458,-4.596436 -65.179199,9.267944c-24.131592,14.46582 -46.217529,32.390259 -72.405762,43.245239c-13.901855,10.960571 -37.485596,2.142456 -48.733154,12.921143c7.86377,14.043213 29.097412,11.310303 41.587158,20.468628c17.100586,5.310303 33.568359,16.782227 52.175537,12.838623c18.681885,-0.883911 34.614502,-10.717041 48.557861,-22.441406c18.791016,-12.673218 43.842773,-19.155029 55.150146,-40.741211c5.613525,-10.14624 2.097412,-33.395996 -11.900391,-32.69165c0.376221,3.321899 2.906006,5.825317 3.504395,9.077637"/>
      <path id="svg_95" fill="url(#linearGradient6020)" fill-rule="evenodd" stroke-width="1px" d="m-2823.990967,-838.904236c14,8 136,-1 136,-1c0,0 -45,-58 -30,-86c-8.615723,-16.050415 9,-161.000061 9,-161.000061c0,0 44,-67.999878 49,-72c5,-4 39,-35 35,-37c-4,-2 -28,4 -28,4l-75,61l-13.717529,-40.445435l-28.282471,27.445557c0,0 5,68.999878 4,74.999878c-1,6 -26,114.000061 -26,114.000061l-25,105l-7,11z"/>
      <path id="svg_96" fill="#4e9a06" fill-rule="evenodd" stroke-width="1px" d="m-2752.990967,-1419.997192l-59,7l-44,32l-64,7l-76,96c0,0 -3,73 0,84c3,11 59,43.000122 59,43.000122c0,0 23,33.999878 39,36.999878c16,3 72,18 80,15c8,-3 29,-24 29,-24l24,-36l57,-46c0,0 67,7 71,4c4,-3 12,-10 12,-10c0,0 19,28 37,19c18,-9 48,-35 48,-35c0,0 22,19 30,19c8,0 21,-6 21,-6c0,0 9,-19 13,-23c4,-4 26,-10 26,-10l6,-26c0,0 -24,-31 -31,-39c-7,-8 -3,-33 -3,-33l-17,-19l-18,1l-48,-18l-43,-48c0,0 -7,-3 -11,-2c-4,1 -27,14 -27,14l-45,3l-66,-6z"/>
      <path id="svg_97" fill="#2e3436" fill-rule="nonzero" stroke-width="3" stroke-linecap="round" stroke-linejoin="bevel" stroke-miterlimit="4" stroke-dashoffset="0" d="m-2763.742432,-1147.968262c-0.39502,39.953247 2.306396,88.760864 -11.788818,126.987549c-16.53125,61.466614 -25.975098,124.711853 -45.245605,185.462646c10.711914,6.402771 -12.650146,2.808777 -1.120117,-6.585815c17.102295,-51.338928 24.435791,-105.348206 38.616943,-157.523376c10.983643,-38.609558 18.679443,-82.465637 14.379883,-122.816956c-0.827881,-7.310547 -0.359863,-19.721191 5.157715,-25.524048z"/>
      <path id="svg_98" fill="#2e3436" fill-rule="nonzero" stroke-width="3" stroke-linecap="round" stroke-linejoin="bevel" stroke-miterlimit="4" stroke-dashoffset="0" d="m-2689.545654,-833.958313c-13.2146,-20.107117 -28.614014,-40.318542 -29.87207,-65.373962c-5.569336,-47.511353 1.610352,-95.334167 3.290771,-142.88269c-0.335205,-27.430298 11.208496,-52.528076 25.77002,-75.080811c9.909912,-20.126831 24.556396,-37.661133 43.000488,-50.447632c10.548096,-9.773926 20.331055,-32.975342 28.344238,-37.578247c-12.456543,22.098999 -28.842773,41.601196 -48.994873,56.830566c-15.028076,19.41626 -26.515137,41.571167 -37.262939,63.547729c-10.901855,33.344727 -7.16333,69.218018 -11.186035,103.682739c-1.224854,40.466248 -6.753662,84.65332 14.593994,121.176025c4.710205,7.631897 17.545898,16.009705 12.316406,26.126282z"/>
      <path id="svg_99" fill="#2e3436" fill-rule="nonzero" stroke-width="3" stroke-linecap="round" stroke-linejoin="bevel" stroke-miterlimit="4" stroke-dashoffset="0" d="m-2763.503174,-900.179443c14.281738,12.60614 36.712891,-4.729431 39.468262,-10.288147c-1.669189,10.161438 -39.003906,31.340698 -39.468262,10.288147z"/>
      <path id="svg_100" fill="#2e3436" fill-rule="nonzero" stroke-width="3" stroke-linecap="round" stroke-linejoin="bevel" stroke-miterlimit="4" stroke-dashoffset="0" d="m-2749.162842,-915.660583c12.132324,14.998352 37.944336,-18.349792 19.471924,4.203186c-3.308594,6.558105 -26.989746,4.64209 -19.471924,-4.203186z"/>
      <path id="svg_101" fill="#2e3436" fill-rule="nonzero" stroke-width="3" stroke-linecap="round" stroke-linejoin="bevel" stroke-miterlimit="4" stroke-dashoffset="0" d="m-2735.715576,-951.123962c14.2229,-5.686768 -10.086426,10.652405 0,0z"/>
      <path id="svg_102" fill="#2e3436" fill-rule="nonzero" stroke-width="3" stroke-linecap="round" stroke-linejoin="bevel" stroke-miterlimit="4" stroke-dashoffset="0" d="m-2711.115234,-1080.125977c-3.955078,9.12793 -25.26123,14.884888 -6.29126,4.213989c2.369873,-0.936646 4.300781,-2.696045 6.29126,-4.213989z"/>
      <path id="svg_103" fill="#2e3436" fill-rule="nonzero" stroke-width="3" stroke-linecap="round" stroke-linejoin="bevel" stroke-miterlimit="4" stroke-dashoffset="0" d="m-2785.912842,-824.902954c-3.011475,-13.99823 -4.793701,-50.100098 2.500244,-51.321289c-1.766113,16.896606 2.34668,35.762634 -2.500244,51.321289z"/>
      <path id="svg_104" fill="#2e3436" fill-rule="nonzero" stroke-width="3" stroke-linecap="round" stroke-linejoin="bevel" stroke-miterlimit="4" stroke-dashoffset="0" d="m-2784.117188,-850.324097c4.804199,5.09259 24.69873,29.865479 8.718018,18.902954c-4.909912,-4.556763 -14.496338,-11.254272 -8.718018,-18.902954z"/>
      <path id="svg_105" fill="#2e3436" fill-rule="nonzero" stroke-width="3" stroke-linecap="round" stroke-linejoin="bevel" stroke-miterlimit="4" stroke-dashoffset="0" d="m-2731.175293,-1126.432007c16.546875,-19.934937 35.396973,-37.716187 58.231934,-50.237305c9.945557,-5.499634 31.278076,-23.038696 33.44165,-22.758667c-19.965576,19.260254 -46.390381,30.839966 -67.202393,48.40979c-7.414063,8.898804 -16.196289,16.496826 -24.471191,24.586182z"/>
      <path id="svg_106" fill="#2e3436" fill-rule="nonzero" stroke-width="3" stroke-linecap="round" stroke-linejoin="bevel" stroke-miterlimit="4" stroke-dashoffset="0" d="m-2728.116943,-1132.325195c-7.641846,-6.968872 -18.330811,-51.946899 -8.982666,-32.033936c2.616943,4.021973 14.590576,28.602539 8.982666,32.033936z"/>
      <path id="svg_107" fill="#2e3436" fill-rule="nonzero" stroke-width="3" stroke-linecap="round" stroke-linejoin="bevel" stroke-miterlimit="4" stroke-dashoffset="0" d="m-2706.123047,-1194.554077c-17.914551,1.652954 -23.908203,25.258179 -39.764404,28.753052c-10.748047,20.84436 -43.061523,22.999146 -40.951416,51.677612c-13.901123,18.094116 -42.980713,10.286377 -62.548096,20.949707c-21.841309,4.990723 -41.768311,-10.536499 -63.033203,-13.28125c-21.261963,-8.186768 -25.082764,-36.063599 -47.307129,-42.768311c-25.682861,-8.616821 -51.15918,-34.801758 -43.123779,-63.748657c3.802246,-33.234741 -0.107422,-69.805664 27.189453,-95.332153c9.640137,-16.278198 33.618652,-45.587158 38.947754,-50.205322c1.01001,-1.272217 28.882324,-24.22583 45.395264,-18.191284c22.630859,2.602417 48.424805,-0.198486 60.408203,-19.926392c30.332031,-26.737427 73.304688,-17.648682 110.305664,-20.379639c29.403076,0.238525 60.911377,12.145996 88.524902,-3.677368c17.345215,-25.453247 46.204346,-10.251465 55.666992,13.098267c21.431396,24.962036 51.599854,40.978027 84.111084,45.328125c25.277588,2.926758 25.472412,30.630371 27.987061,49.870239c8.848145,17.551147 35.777344,28.033081 28.631592,52.472412c-1.425293,24.218384 -35.3396,31.421143 -44.568359,38.515747c1.385742,25.880493 -34.720215,32.925171 -51.840576,19.336182c-19.652588,-20.335571 -36.209473,7.991699 -53.106445,16.625c-24.469238,11.506592 -46.463379,-19.889648 -70,-8.549683c-13.024902,-11.455078 -39.774658,3.845215 -45.436768,-7.260498c23.246582,-15.909424 48.81958,3.36438 72.193848,-3.110229c17.623779,6.064453 37.196289,20.779663 55.467773,7.438721c13.951416,-13.856567 33.462646,-31.894043 51.103516,-12.231079c7.324707,8.147583 41.531982,4.9198 29.958496,0.861084c1.226318,-24.147095 27.241699,-26.470947 44.101074,-34.82666c14.547607,-23.849487 -8.746826,-42.036133 -23.326904,-56.758911c-8.384277,-17.515991 0.925293,-45.127197 -23.499756,-52.176514c-24.509521,-5.328369 -49.131348,-12.84668 -69.871094,-27.800049c-19.576904,-13.309204 -33.237061,-58.009399 -62.217041,-41.269531c-20.300781,20.626099 -52.993652,17.529785 -79.30127,14.568359c-36.188232,-3.638184 -73.908203,-5.637329 -109.18042,4.125854c-22.767578,8.965088 -28.812256,33.141479 -56.421387,33.789673c-23.253174,-2.481812 -50.000977,-1.578491 -67.898193,15.681763c-11.578613,16.203735 -31.864258,42.467163 -44.399902,63.917969c-14.580811,23.842896 -2.910156,53.213745 -11.309814,78.884277c-0.644043,29.70166 28.026367,47.421875 52.151367,57.630737c18.166992,11.767334 23.967773,38.497559 49.365234,40.660522c21.682373,5.070679 45.45459,18.432495 66.998291,4.72229c14.189697,-9.770996 40.126221,5.720581 33.930176,-15.523193c6.189697,-11.770142 14.755859,-18.943237 16.375488,-20.213501c14.892578,-9.761108 30.242432,-24.734863 34.153564,-30.685181c12.052002,-7.814575 10.669189,-1.236084 15.079346,-9.931519c2.123291,-8.045654 37.603271,-31.510376 21.059814,-11.060669z"/>
      <path id="svg_108" fill="#2e3436" fill-rule="nonzero" stroke-width="3" stroke-linecap="round" stroke-linejoin="bevel" stroke-miterlimit="4" stroke-dashoffset="0" d="m-2921.315918,-1205.609497c-6.792969,21.404541 16.589355,53.139404 39.487061,40.482056c20.65625,-12.353394 44.185303,-10.856201 66.175537,-5.409302c13.948242,8.192749 30.156494,6.128296 28.213867,-12.982788c14.992432,17.219116 -19.90918,32.165405 -33.475586,17.619263c-19.122559,-1.747437 -40.234619,-11.290649 -57.111328,3.175293c-19.95166,12.381714 -41.814453,-1.66394 -47.0271,-22.514038c-3.202393,-6.720947 -4.165283,-16.47998 3.737549,-20.370483z"/>
      <path id="svg_109" fill="#2e3436" fill-rule="nonzero" stroke-width="3" stroke-linecap="round" stroke-linejoin="bevel" stroke-miterlimit="4" stroke-dashoffset="0" d="m-2500.839111,-1305.069946c12.417725,22.887817 5.568359,49.360229 -14.693604,64.741333c-21.977295,21.224243 -55.399658,23.552612 -84.276123,21.632813c-9.135498,-2.510132 20.765625,-2.652222 27.584229,-3.812988c26.626221,-0.191772 53.654541,-10.315796 68.518066,-33.457275c12.352783,-15.290894 -2.34668,-32.570435 2.867432,-49.103882z"/>
      <path id="svg_110" fill="#2e3436" fill-rule="nonzero" stroke-width="3" stroke-linecap="round" stroke-linejoin="bevel" stroke-miterlimit="4" stroke-dashoffset="0" d="m-2934.552979,-1245.474854c-13.135498,16.748413 -4.460205,39.412354 -3.152588,58.443604c2.293701,10.066406 20.834961,24.219604 17.371826,29.053223c-22.716553,-13.217285 -25.796631,-42.567017 -24.919189,-66.278687c0.951172,-8.064697 2.570068,-17.317383 10.699951,-21.21814z"/>
      <path id="svg_111" fill="#2e3436" fill-rule="nonzero" stroke-width="3" stroke-linecap="round" stroke-linejoin="bevel" stroke-miterlimit="4" stroke-dashoffset="0" d="m-2863.758057,-1135.437866c25.008789,2.518311 48.065674,-11.511353 72.529785,-11.939087c-17.989258,8.363281 -38.421387,9.632568 -57.356445,15.356323c-2.4729,0.936523 -20.893555,0.97876 -15.17334,-3.417236z"/>
      <path id="svg_112" fill="#2e3436" fill-rule="nonzero" stroke-width="3" stroke-linecap="round" stroke-linejoin="bevel" stroke-miterlimit="4" stroke-dashoffset="0" d="m-2568.003662,-1295.636963c17.371338,21.875366 2.551025,57.521851 -18.4375,70.614746c-18.169922,4.07251 -12.799316,-3.243408 1.233154,-3.685669c19.709961,-13.367432 26.589355,-41.57605 16.207031,-62.5625l0.997314,-4.366577l0,0z"/>
      <path id="svg_113" fill="#2e3436" fill-rule="nonzero" stroke-width="3" stroke-linecap="round" stroke-linejoin="bevel" stroke-miterlimit="4" stroke-dashoffset="0" d="m-2607.913818,-1350.149048c14.751221,27.761475 -1.102295,58.584961 -18.690186,80.64502c-15.009277,14.885132 -37.239014,38.032959 -59.483154,30.16687c-16.633301,-11.924194 2.508789,-8.493286 9.584961,-2.080933c23.354248,-0.681396 42.282227,-20.085449 55.301514,-37.847534c17.174072,-21.655884 15.442871,-45.994507 13.286865,-70.883423z"/>
      <path id="svg_114" fill="#2e3436" fill-rule="nonzero" stroke-width="3" stroke-linecap="round" stroke-linejoin="bevel" stroke-miterlimit="4" stroke-dashoffset="0" d="m-2690.961426,-1212.580322c-6.750977,5.948975 -16.07373,1.150146 -23.82373,3.55835c-6.745605,1.64563 -12.878662,-1.96814 -19.36084,-2.802002c-7.408691,-1.180298 -15.27417,-0.295776 -22.343506,-3.057617c-5.005615,-2.994995 -8.604248,-7.91272 -14.009033,-10.363037c-4.312988,-1.274536 -9.151367,-8.534668 -1.312744,-6.92334c5.770752,2.532959 8.76001,8.816772 14.443359,11.617432c5.671875,3.813354 12.567383,4.312866 19.175049,4.568237c7.600342,0.881104 15.226074,1.962891 22.731934,3.230225c6.577148,-2.183838 12.889648,-1.233643 19.475098,-0.652832c2.798828,0.388672 10.243896,-4.931152 5.666504,-0.03894l-0.64209,0.863525l0,0z"/>
      <path id="svg_115" opacity="0.3" fill="#ffffff" fill-rule="evenodd" stroke-width="1.83768px" d="m-2620.86084,-1421.344238c-22.07666,29.186035 -61.529785,27.908325 -94.027588,32.370728c-27.256104,-2.035889 -54.558594,-26.201294 -80.786865,-6.203369c-30.230225,15.773438 -63.858643,23.362671 -93.931396,39.644165c-20.213623,-2.502075 -63.551514,13.759644 -34.7771,36.966431c26.362305,13.612061 56.220947,-4.242432 73.805176,-24.107666c27.200195,-26.756592 40.042969,24.991211 69.352051,20.234619c35.274414,6.625366 62.272705,-21.073608 94.443604,-29.500977c32.571777,-3.245972 60.885254,-26.337158 64.557129,-60.037109l0.79126,-4.69812l0.57373,-4.668701l0,0z"/>
      <path id="svg_116" fill="#2e3436" fill-rule="nonzero" stroke-width="3" stroke-linecap="round" stroke-linejoin="bevel" stroke-miterlimit="4" stroke-dashoffset="0" d="m-2879.567383,-1303.615112c4.229248,-29.467285 38.790283,-54.43457 67.072754,-39.359863c16.310791,8.235229 22.689697,29.035889 40.653564,34.291748c9.077393,15.5448 -16.283447,-1.746826 -20.078369,-7.62085c-11.456055,-15.99292 -29.777832,-32.305786 -51.030029,-26.144409c-19.199951,3.034058 -27.73584,20.131348 -34.705811,36.067505l-1.912109,2.765869l0,0z"/>
      <path id="svg_117" opacity="0.5" fill="#2e3436" fill-rule="evenodd" stroke-width="1.83768px" d="m-2765.945801,-1181.412964c-23.226074,13.065796 -46.989746,27.881226 -74.222656,30.025757c-17.212891,1.512695 -34.587158,-2.379883 -49.989746,-10.058716c-11.862549,-5.084351 -23.109375,-11.831299 -32.142578,-21.14563c-4.875,-4.540161 -10.040527,-9.12793 -16.441162,-11.346313c-5.635742,0.99646 -13.117432,2.654053 -14.973633,8.898926c0.098877,5.120117 3.852051,9.35376 6.51001,13.51355c3.536865,4.941895 8.399414,8.881836 10.695313,14.652588c2.428955,5.104004 5.574707,9.880371 9.810059,13.648071c5.113037,6.233398 11.802002,11.418823 19.821289,13.133057c8.418945,3.132568 16.03125,8.39624 25.052734,9.801514c6.243164,1.33606 12.230713,3.580444 18.034668,6.161255c9.081787,2.723633 18.671143,3.74353 27.366211,7.708008c9.111816,2.959229 19.342529,-0.716064 25.302246,-8.023193c10.541016,-9.956787 21.473145,-19.562012 30.63623,-30.857056c5.457764,-6.023315 9.888184,-13.047607 11.962158,-20.961792c1.891846,-4.764526 4.311768,-9.952271 2.578857,-15.150024z"/>
      <path id="svg_118" opacity="0.5" fill="#2e3436" fill-rule="evenodd" stroke-width="1.83768px" d="m-2485.699707,-1293.511475c-21.80835,0.976563 -46.194824,-4.596436 -65.179199,9.267944c-24.131592,14.46582 -46.217285,32.390137 -72.405762,43.245239c-13.901611,10.960571 -37.48584,2.142456 -48.733398,12.921143c7.864258,14.043335 29.097656,11.310303 41.587402,20.468628c17.100586,5.310303 33.568359,16.782227 52.175537,12.838623c18.681885,-0.883789 34.614502,-10.717041 48.557861,-22.441406c18.791016,-12.673096 43.842773,-19.154907 55.149902,-40.741333c5.61377,-10.145996 2.097656,-33.395874 -11.900146,-32.691528c0.376221,3.321899 2.905762,5.825317 3.504395,9.077637"/>
      <path id="svg_119" opacity="0.5" fill="#2e3436" fill-rule="evenodd" stroke-width="1px" d="m-2638.227051,-1199.789795c3.660889,-0.52478 10.330811,1.880737 11.026123,5.513062c1.945313,10.162476 -19.295654,21.133301 -22.970947,25.727539c0.237061,1.977417 -17.617676,-9.002197 -0.918945,-19.295654c4.232666,-3.133301 7.650635,-11.197754 12.86377,-11.944946z"/>
      <path id="svg_120" opacity="0.5" fill="#2e3436" fill-rule="evenodd" stroke-width="1px" d="m-2744.812744,-1167.630371c3.660889,-0.524658 10.330811,1.880737 11.026123,5.513062c1.945557,10.162598 -19.29541,21.133423 -22.970947,25.727539c0.237305,1.977417 -17.617432,-9.002075 -0.918701,-19.295654c4.232666,-3.133301 7.650635,-11.197754 12.863525,-11.944946z"/>
     </g>
    </g>
   </g>
   <g id="svg_1">
    <g id="svg_2" transform="matrix(0.848421 0 0 0.90605 -300.362 450.692)">
     <g id="svg_3" transform="matrix(0.554271 0 0 0.554271 12.9915 426.279)">
      <path id="svg_4" fill="#3e671e" fill-rule="evenodd" stroke-width="1.83768px" d="m1272.365356,-1125.827393c-21.80835,0.976563 -46.194702,-4.596313 -65.179321,9.268066c-24.13147,14.465698 -46.217285,32.390137 -72.40564,43.245117c-13.901733,10.960693 -37.485718,2.142456 -48.733276,12.921143c7.864014,14.043335 29.097534,11.310303 41.587158,20.46875c17.100586,5.310303 33.568481,16.782166 52.175659,12.838623c18.681885,-0.883911 34.614502,-10.717163 48.557861,-22.441528c18.791016,-12.673096 43.842773,-19.154907 55.150024,-40.741211c5.613647,-10.146118 2.097412,-33.395996 -11.900269,-32.691528c0.376099,3.321777 2.905884,5.825195 3.504395,9.077515"/>
      <path id="svg_5" fill="url(#linearGradient6020)" fill-rule="evenodd" stroke-width="1px" d="m1051.685791,-696.947693c13.999878,8 135.999878,-1 135.999878,-1c0,0 -45,-58 -30,-86c-8.615845,-16.050415 9,-161 9,-161c0,0 44,-68 49,-72c5,-4 39,-34.999939 35,-36.999939c-4,-2 -28,4 -28,4l-75,60.999939l-13.717529,-40.445496l-28.282471,27.445496c0,0 5,69 4,75c-1,6 -26,114 -26,114l-24.999878,105l-7,11z"/>
      <path id="svg_6" fill="#4e9a06" fill-rule="evenodd" stroke-width="1px" d="m1122.685669,-1278.040649l-59,7l-43.999878,32l-64.000061,7l-76,96c0,0 -3,73 0,84c3,11 59,43.000061 59,43.000061c0,0 23,34 39,37c16,3 72.000061,18 80.000061,15c7.999878,-3 28.999878,-24 28.999878,-24l24,-36l57,-46.000061c0,0 67,7 71,4c4,-3 12,-10 12,-10c0,0 19,28 37,19c18,-9 48,-35 48,-35c0,0 22,19 30,19c8,0 21,-6 21,-6c0,0 9,-19 13,-23c4,-4 26,-10 26,-10l6,-26c0,0 -24,-31 -31,-39c-7,-8 -3,-33 -3,-33l-17,-19l-18,1l-48,-18l-43,-48c0,0 -7,-3 -11,-2c-4,1 -27,14 -27,14l-45,3l-66,-6z"/>
      <path id="svg_7" fill="#2e3436" fill-rule="nonzero" stroke-width="3" stroke-linecap="round" stroke-linejoin="bevel" stroke-miterlimit="4" stroke-dashoffset="0" d="m1111.934326,-1006.01178c-0.395142,39.953308 2.306152,88.760925 -11.789063,126.98761c-16.531128,61.466614 -25.974976,124.711853 -45.245361,185.462585c10.711914,6.402832 -12.650269,2.808838 -1.120117,-6.585754c17.102173,-51.338928 24.435669,-105.348206 38.616821,-157.523438c10.983643,-38.609436 18.679565,-82.465515 14.379883,-122.816833c-0.828003,-7.310608 -0.359985,-19.721313 5.157837,-25.52417z"/>
      <path id="svg_8" fill="#2e3436" fill-rule="nonzero" stroke-width="3" stroke-linecap="round" stroke-linejoin="bevel" stroke-miterlimit="4" stroke-dashoffset="0" d="m1186.130981,-692.00177c-13.2146,-20.107117 -28.614136,-40.318542 -29.87207,-65.374023c-5.569336,-47.511292 1.610352,-95.334106 3.290649,-142.882568c-0.335083,-27.430298 11.208496,-52.528137 25.770142,-75.080811c9.90979,-20.126953 24.556396,-37.661255 43.000488,-50.447571c10.547974,-9.773926 20.330933,-32.975464 28.344116,-37.578369c-12.456421,22.098999 -28.842773,41.601135 -48.994751,56.830505c-15.028076,19.41626 -26.515259,41.57135 -37.263062,63.547791c-10.901855,33.344788 -7.163086,69.218079 -11.186035,103.682739c-1.224731,40.466248 -6.753662,84.65332 14.594238,121.176025c4.710083,7.631897 17.545776,16.009705 12.316284,26.126282z"/>
      <path id="svg_9" fill="#2e3436" fill-rule="nonzero" stroke-width="3" stroke-linecap="round" stroke-linejoin="bevel" stroke-miterlimit="4" stroke-dashoffset="0" d="m1112.173462,-758.2229c14.28186,12.60614 36.712891,-4.729431 39.46814,-10.288086c-1.668945,10.161377 -39.003784,31.340637 -39.46814,10.288086z"/>
      <path id="svg_10" fill="#2e3436" fill-rule="nonzero" stroke-width="3" stroke-linecap="round" stroke-linejoin="bevel" stroke-miterlimit="4" stroke-dashoffset="0" d="m1126.513916,-773.704041c12.132202,14.998352 37.944336,-18.349792 19.47168,4.203247c-3.308472,6.558044 -26.989502,4.64209 -19.47168,-4.203247z"/>
      <path id="svg_11" fill="#2e3436" fill-rule="nonzero" stroke-width="3" stroke-linecap="round" stroke-linejoin="bevel" stroke-miterlimit="4" stroke-dashoffset="0" d="m1139.96106,-809.167419c14.2229,-5.686768 -10.086426,10.652405 0,0z"/>
      <path id="svg_12" fill="#2e3436" fill-rule="nonzero" stroke-width="3" stroke-linecap="round" stroke-linejoin="bevel" stroke-miterlimit="4" stroke-dashoffset="0" d="m1164.561401,-938.169434c-3.955078,9.12793 -25.261108,14.884949 -6.29126,4.213989c2.369873,-0.936584 4.300781,-2.696045 6.29126,-4.213989z"/>
      <path id="svg_13" fill="#2e3436" fill-rule="nonzero" stroke-width="3" stroke-linecap="round" stroke-linejoin="bevel" stroke-miterlimit="4" stroke-dashoffset="0" d="m1089.763794,-682.946411c-3.011353,-13.99823 -4.793823,-50.100098 2.500366,-51.321289c-1.766357,16.896606 2.346558,35.762634 -2.500366,51.321289z"/>
      <path id="svg_14" fill="#2e3436" fill-rule="nonzero" stroke-width="3" stroke-linecap="round" stroke-linejoin="bevel" stroke-miterlimit="4" stroke-dashoffset="0" d="m1091.559326,-708.367554c4.804199,5.09259 24.698975,29.865417 8.718262,18.902893c-4.910156,-4.556702 -14.496338,-11.254211 -8.718262,-18.902893z"/>
      <path id="svg_15" fill="#2e3436" fill-rule="nonzero" stroke-width="3" stroke-linecap="round" stroke-linejoin="bevel" stroke-miterlimit="4" stroke-dashoffset="0" d="m1144.501465,-984.475525c16.546753,-19.934937 35.396851,-37.716187 58.231812,-50.237244c9.945557,-5.499634 31.278076,-23.038696 33.44165,-22.758667c-19.965576,19.260376 -46.390259,30.839966 -67.202515,48.409729c-7.41394,8.898804 -16.196167,16.496887 -24.470947,24.586182z"/>
      <path id="svg_16" fill="#2e3436" fill-rule="nonzero" stroke-width="3" stroke-linecap="round" stroke-linejoin="bevel" stroke-miterlimit="4" stroke-dashoffset="0" d="m1147.55957,-990.368652c-7.641724,-6.968933 -18.330811,-51.946899 -8.982544,-32.033875c2.616943,4.021851 14.590454,28.602478 8.982544,32.033875z"/>
      <path id="svg_17" fill="#2e3436" fill-rule="nonzero" stroke-width="3" stroke-linecap="round" stroke-linejoin="bevel" stroke-miterlimit="4" stroke-dashoffset="0" d="m1169.553467,-1052.597534c-17.914429,1.652954 -23.908203,25.258301 -39.764282,28.752991c-10.748047,20.84436 -43.061523,22.999268 -40.951538,51.677734c-13.900879,18.094116 -42.980347,10.286377 -62.547852,20.949646c-21.841187,4.990723 -41.76825,-10.536499 -63.033264,-13.281189c-21.261902,-8.186768 -25.082764,-36.063721 -47.307251,-42.768433c-25.682861,-8.616821 -51.159058,-34.801697 -43.123657,-63.748596c3.802368,-33.234741 -0.107544,-69.805542 27.189392,-95.332153c9.640259,-16.278198 33.618774,-45.587158 38.947937,-50.205322c1.009888,-1.272217 28.88208,-24.225708 45.395264,-18.191284c22.630737,2.602539 48.424622,-0.198364 60.408264,-19.926392c30.331787,-26.737305 73.304443,-17.648682 110.30542,-20.379517c29.402954,0.238525 60.911499,12.145874 88.52478,-3.677368c17.345337,-25.453369 46.204346,-10.251465 55.666992,13.098145c21.431396,24.962158 51.599976,40.978149 84.111206,45.328125c25.277466,2.92688 25.47229,30.630371 27.986938,49.870361c8.848267,17.551025 35.777466,28.032959 28.631714,52.47229c-1.425293,24.218506 -35.339722,31.421265 -44.568481,38.515869c1.385742,25.880371 -34.720093,32.925171 -51.840454,19.33606c-19.65271,-20.335449 -36.209595,7.991699 -53.106445,16.625122c-24.469238,11.506592 -46.463379,-19.889648 -70.000122,-8.549805c-13.02478,-11.454956 -39.774414,3.845215 -45.436646,-7.260376c23.246582,-15.909424 48.81958,3.364258 72.193848,-3.110352c17.623657,6.064453 37.196167,20.779663 55.467651,7.438843c13.951538,-13.856689 33.462769,-31.894043 51.103516,-12.231079c7.324829,8.147461 41.532104,4.919678 29.958496,0.860962c1.226318,-24.147095 27.241821,-26.470947 44.101074,-34.826538c14.547607,-23.849609 -8.746704,-42.036133 -23.326904,-56.759033c-8.384155,-17.515869 0.925415,-45.127075 -23.499756,-52.176392c-24.509399,-5.328369 -49.131226,-12.846802 -69.871094,-27.800171c-19.576904,-13.309082 -33.236938,-58.009277 -62.217041,-41.269531c-20.300659,20.626099 -52.99353,17.529785 -79.301147,14.568359c-36.18811,-3.638184 -73.908325,-5.637329 -109.180176,4.125977c-22.767822,8.965088 -28.812378,33.141357 -56.421692,33.789551c-23.253052,-2.481689 -50.000977,-1.578491 -67.898132,15.681885c-11.578491,16.203613 -31.864197,42.467041 -44.399841,63.917969c-14.58075,23.842773 -2.910156,53.213623 -11.309814,78.884277c-0.644043,29.70166 28.026245,47.421692 52.151367,57.630554c18.166992,11.767334 23.967773,38.49762 49.365234,40.660583c21.682373,5.070679 45.454651,18.432495 66.998352,4.72229c14.189697,-9.770935 40.125977,5.720581 33.930054,-15.523193c6.189697,-11.770142 14.755859,-18.943298 16.375488,-20.213562c14.892578,-9.761108 30.242432,-24.734802 34.153564,-30.68512c12.052002,-7.814453 10.669067,-1.235962 15.079346,-9.931519c2.123291,-8.045654 37.603149,-31.510376 21.059692,-11.060669z"/>
      <path id="svg_18" fill="#2e3436" fill-rule="nonzero" stroke-width="3" stroke-linecap="round" stroke-linejoin="bevel" stroke-miterlimit="4" stroke-dashoffset="0" d="m954.360779,-1063.652832c-6.792969,21.404419 16.589478,53.139221 39.487061,40.481995c20.656311,-12.353455 44.185364,-10.856262 66.175598,-5.409241c13.94812,8.192566 30.156372,6.128113 28.213623,-12.98291c14.992432,17.219238 -19.90918,32.165344 -33.475342,17.619324c-19.122559,-1.747375 -40.234619,-11.290588 -57.111511,3.175171c-19.95166,12.381714 -41.814514,-1.66394 -47.026978,-22.513977c-3.202515,-6.720825 -4.165161,-16.47998 3.737549,-20.370361z"/>
      <path id="svg_19" fill="#2e3436" fill-rule="nonzero" stroke-width="3" stroke-linecap="round" stroke-linejoin="bevel" stroke-miterlimit="4" stroke-dashoffset="0" d="m1374.837524,-1163.113281c12.417725,22.887695 5.568237,49.360229 -14.693726,64.741333c-21.977295,21.224121 -55.399658,23.552612 -84.276001,21.63269c-9.13562,-2.510132 20.765503,-2.6521 27.584229,-3.812988c26.626099,-0.191772 53.654419,-10.315796 68.518066,-33.457275c12.352783,-15.290771 -2.34668,-32.570435 2.867432,-49.10376z"/>
      <path id="svg_20" fill="#2e3436" fill-rule="nonzero" stroke-width="3" stroke-linecap="round" stroke-linejoin="bevel" stroke-miterlimit="4" stroke-dashoffset="0" d="m941.12384,-1103.518311c-13.135437,16.748413 -4.460388,39.412476 -3.152832,58.443726c2.293823,10.066406 20.835083,24.219543 17.371826,29.05304c-22.716431,-13.217102 -25.796387,-42.566956 -24.918945,-66.278503c0.95105,-8.064819 2.569946,-17.317383 10.699951,-21.218262z"/>
      <path id="svg_21" fill="#2e3436" fill-rule="nonzero" stroke-width="3" stroke-linecap="round" stroke-linejoin="bevel" stroke-miterlimit="4" stroke-dashoffset="0" d="m1011.918701,-993.481323c25.008789,2.518311 48.065552,-11.511414 72.529785,-11.939148c-17.989258,8.363281 -38.421509,9.632629 -57.356445,15.356323c-2.472778,0.936584 -20.893555,0.978882 -15.17334,-3.417175z"/>
      <path id="svg_22" fill="#2e3436" fill-rule="nonzero" stroke-width="3" stroke-linecap="round" stroke-linejoin="bevel" stroke-miterlimit="4" stroke-dashoffset="0" d="m1307.672974,-1153.68042c17.371216,21.875366 2.550903,57.521851 -18.4375,70.614868c-18.169922,4.072388 -12.799438,-3.243408 1.233154,-3.685791c19.709961,-13.367432 26.589233,-41.575928 16.207031,-62.562378l0.997314,-4.366699l0,0z"/>
      <path id="svg_23" fill="#2e3436" fill-rule="nonzero" stroke-width="3" stroke-linecap="round" stroke-linejoin="bevel" stroke-miterlimit="4" stroke-dashoffset="0" d="m1267.762695,-1208.192505c14.751221,27.761475 -1.102173,58.584961 -18.690063,80.64502c-15.009277,14.885254 -37.239014,38.032959 -59.483154,30.166992c-16.633423,-11.924316 2.508789,-8.493408 9.584839,-2.080933c23.354248,-0.681396 42.282349,-20.085571 55.301636,-37.847656c17.17395,-21.655884 15.442749,-45.994507 13.286743,-70.883423z"/>
      <path id="svg_24" fill="#2e3436" fill-rule="nonzero" stroke-width="3" stroke-linecap="round" stroke-linejoin="bevel" stroke-miterlimit="4" stroke-dashoffset="0" d="m1184.71521,-1070.623657c-6.750977,5.948853 -16.073853,1.150146 -23.82373,3.55835c-6.745605,1.645508 -12.87854,-1.96814 -19.36084,-2.802002c-7.408691,-1.18042 -15.27417,-0.295776 -22.343506,-3.057617c-5.005615,-2.994995 -8.604248,-7.912842 -14.009033,-10.363159c-4.31311,-1.274536 -9.151489,-8.534546 -1.312622,-6.92334c5.770508,2.532959 8.759888,8.816895 14.443359,11.617432c5.671753,3.813477 12.567139,4.312988 19.174927,4.568237c7.600464,0.881104 15.226074,1.963013 22.732056,3.230225c6.577026,-2.183838 12.889526,-1.233643 19.474976,-0.65271c2.798828,0.38855 10.243896,-4.931274 5.666504,-0.03894l-0.64209,0.863525l0,0z"/>
      <path id="svg_25" opacity="0.3" fill="#ffffff" fill-rule="evenodd" stroke-width="1.83768px" d="m1254.815674,-1279.387573c-22.076538,29.186035 -61.529541,27.908203 -94.027344,32.370728c-27.256104,-2.035889 -54.558838,-26.201294 -80.787109,-6.203369c-30.22998,15.773315 -63.858398,23.362671 -93.931213,39.644043c-20.213623,-2.501953 -63.551331,13.759766 -34.776978,36.966553c26.362244,13.611938 56.220825,-4.242554 73.805115,-24.107666c27.200073,-26.756714 40.042847,24.991089 69.351929,20.234619c35.274536,6.625366 62.272705,-21.073608 94.443604,-29.500977c32.571655,-3.246094 60.885132,-26.337158 64.557007,-60.037231l0.79126,-4.69812l0.57373,-4.668579l0,0z"/>
      <path id="svg_26" fill="#2e3436" fill-rule="nonzero" stroke-width="3" stroke-linecap="round" stroke-linejoin="bevel" stroke-miterlimit="4" stroke-dashoffset="0" d="m996.109497,-1161.658447c4.228943,-29.467285 38.790161,-54.434692 67.07251,-39.359985c16.310791,8.235229 22.689819,29.035889 40.653564,34.291748c9.077271,15.5448 -16.283569,-1.746826 -20.078369,-7.620728c-11.455933,-15.99292 -29.777832,-32.305786 -51.029907,-26.144409c-19.199951,3.033936 -27.736023,20.131348 -34.705933,36.067505l-1.911865,2.765869l0,0z"/>
      <path id="svg_27" opacity="0.5" fill="#2e3436" fill-rule="evenodd" stroke-width="1.83768px" d="m1109.730713,-1039.456421c-23.225952,13.065918 -46.989624,27.881165 -74.222412,30.025696c-17.212769,1.512695 -34.587219,-2.379883 -49.989929,-10.058716c-11.862427,-5.084167 -23.109131,-11.831116 -32.142517,-21.145447c-4.875,-4.540161 -10.040344,-9.12793 -16.441162,-11.346436c-5.635681,0.99646 -13.117371,2.654053 -14.973633,8.899048c0.098816,5.119995 3.852112,9.353638 6.510071,13.51355c3.536865,4.941895 8.399292,8.881775 10.695251,14.652405c2.428894,5.104004 5.574768,9.880371 9.809998,13.648071c5.113159,6.233398 11.802124,11.418823 19.82135,13.133118c8.418884,3.132629 16.031189,8.396301 25.052673,9.801453c6.243164,1.336121 12.230835,3.580444 18.034851,6.161316c9.081909,2.723633 18.671143,3.743469 27.366089,7.708008c9.111816,2.95929 19.342651,-0.716003 25.302124,-8.023193c10.541016,-9.956848 21.473145,-19.562012 30.636353,-30.857117c5.457886,-6.023315 9.888062,-13.047485 11.962158,-20.961609c1.891724,-4.764526 4.311646,-9.952271 2.578735,-15.150146z"/>
      <path id="svg_28" opacity="0.5" fill="#2e3436" fill-rule="evenodd" stroke-width="1.83768px" d="m1389.976929,-1151.55481c-21.80835,0.97644 -46.194824,-4.596436 -65.179321,9.267944c-24.13147,14.465698 -46.217285,32.390137 -72.40564,43.245239c-13.901733,10.960449 -37.48584,2.142334 -48.733398,12.921143c7.864136,14.043213 29.097534,11.310303 41.58728,20.468628c17.100586,5.310303 33.568481,16.782104 52.175659,12.838623c18.681885,-0.883911 34.61438,-10.717163 48.557861,-22.441528c18.791016,-12.673096 43.842773,-19.154907 55.149902,-40.741211c5.61377,-10.145996 2.097534,-33.395996 -11.900146,-32.69165c0.376099,3.322021 2.905762,5.825439 3.504395,9.077637"/>
      <path id="svg_29" opacity="0.5" fill="#2e3436" fill-rule="evenodd" stroke-width="1px" d="m1237.449463,-1057.833252c3.660889,-0.524658 10.330811,1.880737 11.026123,5.513062c1.945435,10.162476 -19.295654,21.133301 -22.970947,25.727539c0.237061,1.977539 -17.617432,-9.002075 -0.918945,-19.295654c4.232788,-3.133301 7.650757,-11.197754 12.86377,-11.944946z"/>
      <path id="svg_30" opacity="0.5" fill="#2e3436" fill-rule="evenodd" stroke-width="1px" d="m1130.864014,-1025.673706c3.660889,-0.52478 10.330688,1.880676 11.026123,5.512878c1.945435,10.162598 -19.295654,21.133423 -22.971069,25.7276c0.237183,1.977417 -17.61731,-9.002136 -0.918823,-19.295715c4.232788,-3.133179 7.650757,-11.197571 12.86377,-11.944763z"/>
     </g>
    </g>
   </g>
   <g id="svg_31">
    <g id="svg_32" transform="matrix(-0.711018 0 0 0.763506 482.28 496.217)">
     <g id="svg_33" transform="matrix(0.554271 0 0 0.554271 12.9915 426.279)">
      <path id="svg_34" fill="#3e671e" fill-rule="evenodd" stroke-width="1.83768px" d="m71.421165,-1279.545776c-21.80835,0.976563 -46.194578,-4.596436 -65.179319,9.268066c-24.13147,14.465698 -46.217165,32.390137 -72.405642,43.245239c-13.901611,10.960449 -37.485596,2.142456 -48.733162,12.921021c7.864021,14.043335 29.09742,11.310303 41.587166,20.468872c17.100586,5.310181 33.568363,16.781982 52.175539,12.838501c18.681885,-0.883911 34.614502,-10.717163 48.557983,-22.441528c18.791014,-12.673096 43.842649,-19.154785 55.1499,-40.741211c5.61377,-10.146118 2.097412,-33.395996 -11.900269,-32.691528c0.376221,3.321899 2.905884,5.825317 3.504395,9.077515"/>
      <path id="svg_35" fill="url(#linearGradient6020)" fill-rule="evenodd" stroke-width="1px" d="m-149.258514,-850.665955c14.000122,8 136.000116,-1 136.000116,-1c0,0 -44.999998,-58 -29.999998,-86c-8.615849,-16.050415 9,-161.000061 9,-161.000061c0,0 43.999998,-68 48.999998,-72c5,-4 38.999998,-35 34.999998,-37c-4,-2 -27.999998,4 -27.999998,4l-74.999998,61l-13.717655,-40.445557l-28.282349,27.445557c0,0 5,69 4,75c-1,6 -25.999992,114.000061 -25.999992,114.000061l-25.000122,105l-7,11z"/>
      <path id="svg_36" fill="#4e9a06" fill-rule="evenodd" stroke-width="1px" d="m-78.2584,-1431.759033l-58.999992,7l-44.000122,32l-64,7l-76,96c0,0 -3,73 0,84c3,11 59,43 59,43c0,0 23,34 39,37c16,3 72,18 80,15c8.000122,-3 29.000122,-24 29.000122,-24l23.999992,-36l57.000004,-46c0,0 66.999996,7 70.999996,4c4,-3 12,-10 12,-10c0,0 19,28 37,19c18,-9 48.000008,-35 48.000008,-35c0,0 22,19 30,19c8,0 21,-6 21,-6c0,0 9,-19 13,-23c4,-4 26,-10 26,-10l6,-26c0,0 -24,-31 -31,-39c-7,-8 -3,-33 -3,-33l-17,-19l-18,1l-48.000008,-18l-43,-48c0,0 -7,-3 -11,-2c-4,1 -27,14 -27,14l-44.999998,3l-66.000002,-6z"/>
      <path id="svg_37" fill="#2e3436" fill-rule="nonzero" stroke-width="3" stroke-linecap="round" stroke-linejoin="bevel" stroke-miterlimit="4" stroke-dashoffset="0" d="m-89.009743,-1159.730103c-0.395264,39.953247 2.306152,88.760864 -11.789063,126.987671c-16.53112,61.466614 -25.974983,124.711853 -45.245613,185.462646c10.712173,6.402771 -12.650131,2.808777 -1.120117,-6.585815c17.102295,-51.338928 24.435806,-105.348206 38.616951,-157.523438c10.983643,-38.609497 18.679688,-82.465698 14.379883,-122.817017c-0.827881,-7.310547 -0.359863,-19.721313 5.157959,-25.524048z"/>
      <path id="svg_38" fill="#2e3436" fill-rule="nonzero" stroke-width="3" stroke-linecap="round" stroke-linejoin="bevel" stroke-miterlimit="4" stroke-dashoffset="0" d="m-14.813086,-845.720032c-13.2146,-20.107117 -28.61426,-40.318542 -29.87219,-65.373962c-5.56934,-47.511353 1.61047,-95.334229 3.290646,-142.88269c-0.334961,-27.430298 11.20862,-52.528076 25.770266,-75.080933c9.90979,-20.126953 24.556274,-37.661133 43.000366,-50.447632c10.547972,-9.773804 20.331057,-32.97522 28.344236,-37.578247c-12.456543,22.099121 -28.842894,41.601318 -48.994871,56.830566c-15.028076,19.41626 -26.515137,41.571289 -37.262939,63.547852c-10.901857,33.344727 -7.163088,69.218018 -11.186155,103.682739c-1.224613,40.466248 -6.753544,84.65332 14.594358,121.176025c4.709961,7.631897 17.545776,16.009705 12.316284,26.126282z"/>
      <path id="svg_39" fill="#2e3436" fill-rule="nonzero" stroke-width="3" stroke-linecap="round" stroke-linejoin="bevel" stroke-miterlimit="4" stroke-dashoffset="0" d="m-88.770607,-911.941162c14.28186,12.60614 36.712891,-4.729431 39.468018,-10.288086c-1.668823,10.161377 -39.003662,31.340637 -39.468018,10.288086z"/>
      <path id="svg_40" fill="#2e3436" fill-rule="nonzero" stroke-width="3" stroke-linecap="round" stroke-linejoin="bevel" stroke-miterlimit="4" stroke-dashoffset="0" d="m-74.430153,-927.422302c12.13208,14.998413 37.944336,-18.349792 19.47168,4.203247c-3.308594,6.558044 -26.989502,4.64209 -19.47168,-4.203247z"/>
      <path id="svg_41" fill="#2e3436" fill-rule="nonzero" stroke-width="3" stroke-linecap="round" stroke-linejoin="bevel" stroke-miterlimit="4" stroke-dashoffset="0" d="m-60.983131,-962.885681c14.2229,-5.686768 -10.086426,10.652405 0,0z"/>
      <path id="svg_42" fill="#2e3436" fill-rule="nonzero" stroke-width="3" stroke-linecap="round" stroke-linejoin="bevel" stroke-miterlimit="4" stroke-dashoffset="0" d="m-36.38279,-1091.887817c-3.954956,9.12793 -25.261108,14.88501 -6.29126,4.213989c2.369873,-0.936523 4.300781,-2.696045 6.29126,-4.213989z"/>
      <path id="svg_43" fill="#2e3436" fill-rule="nonzero" stroke-width="3" stroke-linecap="round" stroke-linejoin="bevel" stroke-miterlimit="4" stroke-dashoffset="0" d="m-111.180397,-836.664673c-3.011223,-13.99823 -4.793709,-50.100098 2.500488,-51.321289c-1.766357,16.896606 2.346558,35.762634 -2.500488,51.321289z"/>
      <path id="svg_44" fill="#2e3436" fill-rule="nonzero" stroke-width="3" stroke-linecap="round" stroke-linejoin="bevel" stroke-miterlimit="4" stroke-dashoffset="0" d="m-109.384743,-862.085815c4.804077,5.09259 24.698975,29.865479 8.718262,18.902954c-4.910156,-4.556763 -14.496468,-11.254272 -8.718262,-18.902954z"/>
      <path id="svg_45" fill="#2e3436" fill-rule="nonzero" stroke-width="3" stroke-linecap="round" stroke-linejoin="bevel" stroke-miterlimit="4" stroke-dashoffset="0" d="m-56.442604,-1138.193848c16.546631,-19.934814 35.39673,-37.716187 58.231813,-50.237183c9.945557,-5.499756 31.278074,-23.038818 33.441648,-22.758667c-19.965696,19.260254 -46.390257,30.839844 -67.202513,48.409668c-7.413942,8.898682 -16.196287,16.496826 -24.470949,24.586182z"/>
      <path id="svg_46" fill="#2e3436" fill-rule="nonzero" stroke-width="3" stroke-linecap="round" stroke-linejoin="bevel" stroke-miterlimit="4" stroke-dashoffset="0" d="m-53.384499,-1144.087036c-7.641724,-6.968872 -18.330811,-51.946777 -8.982662,-32.033936c2.61694,4.021973 14.590572,28.602539 8.982662,32.033936z"/>
      <path id="svg_47" fill="#2e3436" fill-rule="nonzero" stroke-width="3" stroke-linecap="round" stroke-linejoin="bevel" stroke-miterlimit="4" stroke-dashoffset="0" d="m-31.390722,-1206.315918c-17.914305,1.653076 -23.908205,25.258301 -39.764284,28.753052c-10.747925,20.84436 -43.061516,22.999146 -40.951416,51.677612c-13.900871,18.094238 -42.980583,10.286377 -62.547966,20.949707c-21.841187,4.990723 -41.768204,-10.536499 -63.03334,-13.281128c-21.261948,-8.18689 -25.082748,-36.063599 -47.307236,-42.768433c-25.682739,-8.616699 -51.159058,-34.801758 -43.123535,-63.748535c3.802246,-33.234863 -0.107544,-69.805664 27.189331,-95.332275c9.640259,-16.278076 33.618774,-45.587036 38.947876,-50.205322c1.01001,-1.272095 28.882202,-24.225586 45.395264,-18.191284c22.630737,2.602539 48.424545,-0.198364 60.408203,-19.926392c30.332016,-26.737305 73.30468,-17.648682 110.305538,-20.379395c29.403074,0.238403 60.911619,12.145874 88.524899,-3.67749c17.345219,-25.453369 46.204346,-10.251465 55.666992,13.098145c21.431396,24.962158 51.599861,40.978271 84.111214,45.328247c25.277466,2.926758 25.472168,30.630249 27.986938,49.870239c8.848145,17.551025 35.777344,28.032959 28.631577,52.472412c-1.425278,24.218506 -35.339584,31.421143 -44.568344,38.515869c1.385742,25.880371 -34.720215,32.925171 -51.840576,19.335938c-19.652596,-20.335571 -36.20948,7.991699 -53.106331,16.625244c-24.469238,11.506348 -46.463375,-19.889648 -70.00012,-8.549805c-13.024902,-11.455078 -39.774414,3.845215 -45.436646,-7.260498c23.246582,-15.909424 48.819458,3.36438 72.193846,-3.110229c17.623535,6.064331 37.196167,20.779663 55.467651,7.438843c13.951538,-13.856689 33.462776,-31.894165 51.103523,-12.231201c7.324829,8.147461 41.531982,4.919678 29.958496,0.861084c1.226196,-24.147217 27.241699,-26.471069 44.101074,-34.82666c14.547592,-23.849487 -8.746704,-42.036133 -23.326904,-56.758911c-8.384155,-17.515991 0.925415,-45.127319 -23.499756,-52.176514c-24.509399,-5.328369 -49.131226,-12.846802 -69.871223,-27.800171c-19.576782,-13.309082 -33.236938,-58.009277 -62.217041,-41.269531c-20.300657,20.626221 -52.993528,17.529785 -79.301146,14.568359c-36.18799,-3.638062 -73.908205,-5.637207 -109.180307,4.125977c-22.767807,8.964966 -28.812363,33.141357 -56.421616,33.789551c-23.253052,-2.481689 -50.000977,-1.578369 -67.898071,15.681763c-11.578613,16.203735 -31.864258,42.467285 -44.399902,63.918091c-14.580688,23.842773 -2.910156,53.213623 -11.309814,78.884277c-0.644043,29.70166 28.026367,47.421875 52.151367,57.630615c18.166992,11.767334 23.967773,38.497559 49.365234,40.660645c21.682373,5.070557 45.45459,18.432373 66.998276,4.722168c14.189941,-9.770996 40.126228,5.720703 33.930191,-15.523193c6.189812,-11.770142 14.755852,-18.943237 16.375481,-20.213623c14.8927,-9.760986 30.242554,-24.734741 34.153564,-30.685059c12.052006,-7.814453 10.669189,-1.235962 15.079346,-9.931519c2.123291,-8.045532 37.603273,-31.510376 21.059694,-11.060669z"/>
      <path id="svg_48" fill="#2e3436" fill-rule="nonzero" stroke-width="3" stroke-linecap="round" stroke-linejoin="bevel" stroke-miterlimit="4" stroke-dashoffset="0" d="m-246.583466,-1217.371216c-6.792969,21.404419 16.589462,53.139282 39.487045,40.481934c20.656265,-12.353271 44.185318,-10.856079 66.175674,-5.409058c13.94812,8.192505 30.156487,6.128052 28.213737,-12.98291c14.992432,17.218994 -19.909172,32.165161 -33.475594,17.619141c-19.122543,-1.747437 -40.234604,-11.290405 -57.111313,3.175293c-19.951782,12.381592 -41.814575,-1.663818 -47.0271,-22.513916c-3.202515,-6.721069 -4.165161,-16.47998 3.737549,-20.370483z"/>
      <path id="svg_49" fill="#2e3436" fill-rule="nonzero" stroke-width="3" stroke-linecap="round" stroke-linejoin="bevel" stroke-miterlimit="4" stroke-dashoffset="0" d="m173.893341,-1316.831665c12.417725,22.887817 5.568359,49.360229 -14.693604,64.741333c-21.977295,21.224243 -55.399666,23.552612 -84.276131,21.63269c-9.135498,-2.51001 20.765625,-2.6521 27.584229,-3.812866c26.626228,-0.191895 53.654549,-10.315918 68.518196,-33.457397c12.352661,-15.290771 -2.34668,-32.570313 2.86731,-49.10376z"/>
      <path id="svg_50" fill="#2e3436" fill-rule="nonzero" stroke-width="3" stroke-linecap="round" stroke-linejoin="bevel" stroke-miterlimit="4" stroke-dashoffset="0" d="m-259.820404,-1257.236572c-13.135376,16.748291 -4.460327,39.412231 -3.152832,58.443726c2.293823,10.066284 20.835083,24.21936 17.371948,29.052979c-22.716553,-13.217163 -25.796509,-42.567017 -24.919067,-66.278564c0.951172,-8.064697 2.569946,-17.317261 10.699951,-21.21814z"/>
      <path id="svg_51" fill="#2e3436" fill-rule="nonzero" stroke-width="3" stroke-linecap="round" stroke-linejoin="bevel" stroke-miterlimit="4" stroke-dashoffset="0" d="m-189.025604,-1147.199585c25.008789,2.518188 48.065552,-11.511597 72.530029,-11.939209c-17.989258,8.363281 -38.421631,9.632568 -57.356689,15.356323c-2.472656,0.936646 -20.893433,0.97876 -15.17334,-3.417114z"/>
      <path id="svg_52" fill="#2e3436" fill-rule="nonzero" stroke-width="3" stroke-linecap="round" stroke-linejoin="bevel" stroke-miterlimit="4" stroke-dashoffset="0" d="m106.728783,-1307.398682c17.371338,21.875366 2.550903,57.521729 -18.4375,70.614624c-18.1698,4.072632 -12.799316,-3.243286 1.233276,-3.685669c19.709839,-13.367432 26.589111,-41.575928 16.207031,-62.562256l0.997192,-4.366699l0,0z"/>
      <path id="svg_53" fill="#2e3436" fill-rule="nonzero" stroke-width="3" stroke-linecap="round" stroke-linejoin="bevel" stroke-miterlimit="4" stroke-dashoffset="0" d="m66.818626,-1361.910889c14.751221,27.761475 -1.102295,58.584961 -18.690063,80.64502c-15.009274,14.885254 -37.239134,38.032959 -59.483152,30.16687c-16.633423,-11.924194 2.508789,-8.493286 9.584839,-2.080933c23.354126,-0.681274 42.282225,-20.085327 55.301638,-37.847412c17.173946,-21.656006 15.442745,-45.994629 13.286739,-70.883545z"/>
      <path id="svg_54" fill="#2e3436" fill-rule="nonzero" stroke-width="3" stroke-linecap="round" stroke-linejoin="bevel" stroke-miterlimit="4" stroke-dashoffset="0" d="m-16.228979,-1224.342041c-6.750977,5.948975 -16.073732,1.150024 -23.823732,3.55835c-6.745483,1.645508 -12.878418,-1.968018 -19.360836,-2.802002c-7.408695,-1.18042 -15.274052,-0.295776 -22.34351,-3.057617c-5.005615,-2.994995 -8.604126,-7.912842 -14.009033,-10.363037c-4.31311,-1.274536 -9.151367,-8.534668 -1.3125,-6.92334c5.770508,2.532959 8.759766,8.816772 14.443359,11.61731c5.671631,3.813477 12.567139,4.312988 19.174805,4.568237c7.600586,0.881104 15.226196,1.963013 22.732056,3.230225c6.577148,-2.183838 12.889528,-1.233521 19.474977,-0.65271c2.798828,0.38855 10.244019,-4.931274 5.666504,-0.03894l-0.64209,0.863525l0,0z"/>
      <path id="svg_55" opacity="0.3" fill="#ffffff" fill-rule="evenodd" stroke-width="1.83768px" d="m53.871605,-1433.106079c-22.076536,29.186157 -61.529539,27.908325 -94.02734,32.37085c-27.256107,-2.035889 -54.558842,-26.201294 -80.787106,-6.203247c-30.230118,15.773193 -63.858658,23.362427 -93.931412,39.643921c-20.213608,-2.502075 -63.551376,13.759888 -34.776962,36.966553c26.362305,13.611938 56.220825,-4.242554 73.805038,-24.107544c27.200089,-26.756714 40.042969,24.990967 69.35218,20.234619c35.274536,6.625244 62.272705,-21.07373 94.443605,-29.500977c32.571655,-3.246094 60.885134,-26.337402 64.557005,-60.037231l0.791264,-4.69812l0.573727,-4.668823l0,0z"/>
      <path id="svg_56" fill="#2e3436" fill-rule="nonzero" stroke-width="3" stroke-linecap="round" stroke-linejoin="bevel" stroke-miterlimit="4" stroke-dashoffset="0" d="m-204.834702,-1315.376709c4.229004,-29.467529 38.790054,-54.434814 67.072525,-39.360107c16.310791,8.235352 22.689926,29.036011 40.653557,34.29187c9.077393,15.5448 -16.28344,-1.746948 -20.078362,-7.620728c-11.455948,-15.993164 -29.777954,-32.305908 -51.030029,-26.144409c-19.199951,3.033936 -27.735962,20.131226 -34.705933,36.067383l-1.911758,2.765991l0,0z"/>
      <path id="svg_57" opacity="0.5" fill="#2e3436" fill-rule="evenodd" stroke-width="1.83768px" d="m-91.213356,-1193.174683c-23.226082,13.065674 -46.989754,27.881104 -74.222664,30.025635c-17.212631,1.512573 -34.587021,-2.380005 -49.989868,-10.058716c-11.862411,-5.084229 -23.109116,-11.831177 -32.142441,-21.145508c-4.875,-4.540039 -10.040405,-9.12793 -16.441162,-11.346436c-5.635742,0.996582 -13.117432,2.654175 -14.973633,8.899048c0.098877,5.119995 3.852173,9.353638 6.51001,13.513672c3.536865,4.941772 8.399414,8.881592 10.695313,14.652466c2.428955,5.103882 5.574707,9.880371 9.810059,13.647949c5.113037,6.233398 11.801987,11.418701 19.821289,13.133057c8.418945,3.13269 16.03125,8.39624 25.052612,9.801514c6.243164,1.33606 12.230835,3.580322 18.034912,6.161255c9.081787,2.723755 18.671021,3.74353 27.365967,7.70813c9.111801,2.959106 19.342651,-0.716064 25.302231,-8.023315c10.541138,-9.956909 21.473267,-19.562012 30.63636,-30.857056c5.458008,-6.023315 9.888184,-13.047607 11.962158,-20.96167c1.891846,-4.764526 4.311646,-9.952271 2.578857,-15.150024z"/>
      <path id="svg_58" opacity="0.5" fill="#2e3436" fill-rule="evenodd" stroke-width="1.83768px" d="m189.032745,-1305.273315c-21.80835,0.976685 -46.194824,-4.596313 -65.179329,9.268066c-24.131348,14.465698 -46.217163,32.390259 -72.405518,43.245239c-13.901733,10.960571 -37.48596,2.142334 -48.733519,12.921143c7.864136,14.043213 29.097656,11.310181 41.587278,20.468628c17.100586,5.310425 33.568481,16.782104 52.175659,12.838623c18.681885,-0.883911 34.61451,-10.717041 48.557976,-22.441528c18.791031,-12.672974 43.842667,-19.154907 55.149918,-40.741211c5.61377,-10.146118 2.097412,-33.395996 -11.900146,-32.69165c0.375977,3.322021 2.905762,5.825439 3.504395,9.077637"/>
      <path id="svg_59" opacity="0.5" fill="#2e3436" fill-rule="evenodd" stroke-width="1px" d="m36.505394,-1211.551636c3.660892,-0.524658 10.330688,1.880859 11.026127,5.513062c1.945313,10.162598 -19.295656,21.133301 -22.970949,25.727539c0.237061,1.977539 -17.617554,-9.001953 -0.919067,-19.295654c4.23291,-3.133179 7.650879,-11.197632 12.86389,-11.944946z"/>
      <path id="svg_60" opacity="0.5" fill="#2e3436" fill-rule="evenodd" stroke-width="1px" d="m-70.080177,-1179.392212c3.661011,-0.524658 10.330688,1.880859 11.026245,5.513062c1.945313,10.162476 -19.295654,21.133301 -22.971069,25.727539c0.237183,1.977417 -17.617432,-9.001953 -0.918823,-19.295654c4.232788,-3.133301 7.650635,-11.197632 12.863647,-11.944946z"/>
     </g>
    </g>
   </g>
   <g id="svg_61">
    <g id="svg_62" transform="matrix(0.915963 0 0 1.06732 -292.556 439.107)">
     <g id="svg_63" transform="matrix(0.554271 0 0 0.554271 12.9915 426.279)">
      <path id="svg_64" fill="#3e671e" fill-rule="evenodd" stroke-width="1.83768px" d="m1931.818359,-1131.149048c-21.80835,0.97644 -46.194946,-4.596436 -65.179443,9.268066c-24.13147,14.465576 -46.217163,32.390137 -72.405518,43.245117c-13.901733,10.960571 -37.485962,2.142334 -48.733521,12.921143c7.864258,14.043213 29.097534,11.310303 41.587402,20.468628c17.100586,5.310303 33.568359,16.782227 52.175537,12.838623c18.681885,-0.883911 34.614502,-10.717041 48.557861,-22.441406c18.791016,-12.673218 43.842773,-19.155029 55.149902,-40.741333c5.61377,-10.146118 2.097412,-33.395874 -11.900146,-32.691528c0.376221,3.321777 2.905762,5.825317 3.504395,9.077515"/>
      <path id="svg_65" fill="url(#linearGradient6020)" fill-rule="evenodd" stroke-width="1px" d="m1711.13855,-702.269409c14,8 136,-1 136,-1c0,0 -45,-58.000061 -30,-86.000061c-8.615967,-16.050354 9,-161 9,-161c0,0 44,-67.999939 49,-71.999939c5,-4 39,-35 35,-37c-4,-2 -28,4 -28,4l-75,60.999939l-13.717529,-40.445374l-28.282471,27.445435c0,0 5,68.999939 4,74.999939c-1,6 -26,114 -26,114l-25,105.000061l-7,11z"/>
      <path id="svg_66" fill="#4e9a06" fill-rule="evenodd" stroke-width="1px" d="m1782.13855,-1283.362305l-59,7l-44,32l-64,7l-76,96c0,0 -3,73 0,84c3,11 59,43 59,43c0,0 23,33.999939 39,36.999939c16,3 72,18 80,15c8,-3 29,-24 29,-24l24,-35.999939l57,-46c0,0 67,7 71,4c4,-3 12,-10 12,-10c0,0 19,28 37,19c18,-9 48,-35 48,-35c0,0 22,19 30,19c8,0 21,-6 21,-6c0,0 9.000122,-19 13.000122,-23c4,-4 26,-10 26,-10l6,-26c0,0 -24,-31 -31,-39c-7,-8 -3,-33 -3,-33l-17.000122,-19l-18,1l-48,-18l-43,-48c0,0 -7,-3 -11,-2c-4,1 -27,14 -27,14l-45,3l-66,-6z"/>
      <path id="svg_67" fill="#2e3436" fill-rule="nonzero" stroke-width="3" stroke-linecap="round" stroke-linejoin="bevel" stroke-miterlimit="4" stroke-dashoffset="0" d="m1771.387085,-1011.333496c-0.39502,39.953308 2.306274,88.760925 -11.788818,126.987549c-16.53125,61.466675 -25.975098,124.711853 -45.245605,185.462708c10.712036,6.402771 -12.650391,2.808777 -1.120117,-6.585815c17.102295,-51.338989 24.435913,-105.348206 38.617065,-157.523499c10.983521,-38.609375 18.679321,-82.465515 14.379761,-122.816833c-0.828125,-7.310608 -0.359985,-19.721252 5.157715,-25.524109z"/>
      <path id="svg_68" fill="#2e3436" fill-rule="nonzero" stroke-width="3" stroke-linecap="round" stroke-linejoin="bevel" stroke-miterlimit="4" stroke-dashoffset="0" d="m1845.583862,-697.323486c-13.2146,-20.107117 -28.614014,-40.318542 -29.871948,-65.374023c-5.569458,-47.511353 1.610229,-95.334167 3.290405,-142.882629c-0.334961,-27.430298 11.208618,-52.528137 25.770386,-75.080811c9.909546,-20.126892 24.556396,-37.661194 43.000244,-50.447571c10.548218,-9.773926 20.331177,-32.975342 28.344238,-37.578247c-12.456543,22.098999 -28.842773,41.601074 -48.994751,56.830444c-15.028076,19.416199 -26.515381,41.571228 -37.263062,63.547791c-10.901978,33.344727 -7.162964,69.218018 -11.186157,103.682739c-1.224609,40.466187 -6.75354,84.653259 14.59436,121.176025c4.710083,7.631897 17.545898,16.009705 12.316284,26.126282z"/>
      <path id="svg_69" fill="#2e3436" fill-rule="nonzero" stroke-width="3" stroke-linecap="round" stroke-linejoin="bevel" stroke-miterlimit="4" stroke-dashoffset="0" d="m1771.626343,-763.544617c14.281982,12.606079 36.712891,-4.729492 39.468018,-10.288147c-1.668701,10.161438 -39.003662,31.340637 -39.468018,10.288147z"/>
      <path id="svg_70" fill="#2e3436" fill-rule="nonzero" stroke-width="3" stroke-linecap="round" stroke-linejoin="bevel" stroke-miterlimit="4" stroke-dashoffset="0" d="m1785.966797,-779.025818c12.132202,14.998413 37.944214,-18.349792 19.47168,4.203308c-3.308472,6.558044 -26.989624,4.642029 -19.47168,-4.203308z"/>
      <path id="svg_71" fill="#2e3436" fill-rule="nonzero" stroke-width="3" stroke-linecap="round" stroke-linejoin="bevel" stroke-miterlimit="4" stroke-dashoffset="0" d="m1799.41394,-814.489197c14.2229,-5.686768 -10.086548,10.652466 0,0z"/>
      <path id="svg_72" fill="#2e3436" fill-rule="nonzero" stroke-width="3" stroke-linecap="round" stroke-linejoin="bevel" stroke-miterlimit="4" stroke-dashoffset="0" d="m1824.014282,-943.491211c-3.954956,9.127991 -25.26123,14.884949 -6.29126,4.21405c2.369873,-0.936646 4.300659,-2.696045 6.29126,-4.21405z"/>
      <path id="svg_73" fill="#2e3436" fill-rule="nonzero" stroke-width="3" stroke-linecap="round" stroke-linejoin="bevel" stroke-miterlimit="4" stroke-dashoffset="0" d="m1749.216675,-688.268127c-3.011475,-13.99823 -4.793701,-50.100098 2.500244,-51.321289c-1.766357,16.896606 2.34668,35.762634 -2.500244,51.321289z"/>
      <path id="svg_74" fill="#2e3436" fill-rule="nonzero" stroke-width="3" stroke-linecap="round" stroke-linejoin="bevel" stroke-miterlimit="4" stroke-dashoffset="0" d="m1751.012329,-713.68927c4.804077,5.09259 24.69873,29.865479 8.718262,18.902954c-4.910156,-4.556763 -14.496338,-11.254272 -8.718262,-18.902954z"/>
      <path id="svg_75" fill="#2e3436" fill-rule="nonzero" stroke-width="3" stroke-linecap="round" stroke-linejoin="bevel" stroke-miterlimit="4" stroke-dashoffset="0" d="m1803.954224,-989.797302c16.546875,-19.934875 35.397095,-37.716125 58.231934,-50.237122c9.945557,-5.499634 31.278076,-23.038696 33.44165,-22.758667c-19.965576,19.260254 -46.390259,30.839844 -67.202515,48.409668c-7.41394,8.898804 -16.196045,16.496826 -24.471069,24.586121z"/>
      <path id="svg_76" fill="#2e3436" fill-rule="nonzero" stroke-width="3" stroke-linecap="round" stroke-linejoin="bevel" stroke-miterlimit="4" stroke-dashoffset="0" d="m1807.012451,-995.69043c-7.641724,-6.968872 -18.330811,-51.946777 -8.982544,-32.033813c2.616943,4.021851 14.590576,28.602417 8.982544,32.033813z"/>
      <path id="svg_77" fill="#2e3436" fill-rule="nonzero" stroke-width="3" stroke-linecap="round" stroke-linejoin="bevel" stroke-miterlimit="4" stroke-dashoffset="0" d="m1829.006226,-1057.919189c-17.914307,1.652954 -23.908203,25.258179 -39.76416,28.75293c-10.748047,20.84436 -43.061523,22.999146 -40.95166,51.677673c-13.900635,18.094116 -42.980469,10.286377 -62.547852,20.949646c-21.841309,4.990784 -41.768311,-10.536499 -63.033203,-13.281128c-21.261963,-8.186829 -25.082764,-36.063721 -47.307251,-42.768433c-25.682861,-8.616821 -51.159302,-34.801636 -43.123657,-63.748535c3.802246,-33.234741 -0.107422,-69.805664 27.189453,-95.332153c9.640137,-16.278198 33.618652,-45.587158 38.947754,-50.205322c1.010132,-1.272217 28.88208,-24.225708 45.395264,-18.191284c22.630737,2.602539 48.424683,-0.198486 60.408203,-19.926514c30.332031,-26.737305 73.304688,-17.64856 110.305664,-20.379395c29.402832,0.238525 60.911499,12.145874 88.524902,-3.67749c17.345215,-25.453369 46.204346,-10.251465 55.666992,13.098267c21.431274,24.962036 51.599854,40.978027 84.111084,45.328125c25.277466,2.92688 25.47229,30.630249 27.986938,49.870239c8.848389,17.551147 35.777344,28.033081 28.631836,52.472412c-1.425293,24.218506 -35.339844,31.421265 -44.568604,38.515747c1.385742,25.880493 -34.720093,32.925171 -51.840454,19.336182c-19.652588,-20.335571 -36.209473,7.991699 -53.106445,16.625c-24.469238,11.506592 -46.463379,-19.889648 -70.000244,-8.549683c-13.024658,-11.455078 -39.774414,3.845215 -45.436523,-7.260498c23.246582,-15.909302 48.819702,3.36438 72.193726,-3.110229c17.623657,6.064453 37.196289,20.779663 55.467651,7.438843c13.95166,-13.856812 33.462891,-31.894165 51.10376,-12.231201c7.324585,8.147583 41.53186,4.9198 29.958252,0.861084c1.226318,-24.147095 27.242065,-26.470947 44.101196,-34.82666c14.547607,-23.849487 -8.746582,-42.036133 -23.326904,-56.758911c-8.384277,-17.515991 0.925537,-45.127197 -23.499878,-52.176392c-24.509277,-5.328369 -49.131104,-12.846802 -69.871094,-27.800171c-19.576904,-13.309204 -33.236816,-58.009399 -62.217041,-41.269531c-20.300537,20.626099 -52.993408,17.529663 -79.301025,14.568359c-36.188232,-3.638306 -73.908325,-5.637329 -109.18042,4.125854c-22.767822,8.965088 -28.812134,33.141357 -56.421631,33.789551c-23.25293,-2.481689 -50.000977,-1.578369 -67.898193,15.681885c-11.578369,16.203735 -31.864014,42.467163 -44.39978,63.917969c-14.580688,23.842896 -2.910156,53.213623 -11.309692,78.884277c-0.644165,29.70166 28.026123,47.421753 52.151367,57.630615c18.166992,11.767334 23.967773,38.49762 49.365356,40.660583c21.682373,5.070618 45.454468,18.432495 66.998047,4.72229c14.189819,-9.770996 40.126343,5.720581 33.930298,-15.523254c6.189697,-11.770142 14.755859,-18.943237 16.375488,-20.213501c14.8927,-9.761108 30.242432,-24.734863 34.153564,-30.685059c12.052002,-7.814575 10.669189,-1.236084 15.079346,-9.931519c2.123291,-8.045654 37.603271,-31.510498 21.05957,-11.060669z"/>
      <path id="svg_78" fill="#2e3436" fill-rule="nonzero" stroke-width="3" stroke-linecap="round" stroke-linejoin="bevel" stroke-miterlimit="4" stroke-dashoffset="0" d="m1613.813721,-1068.974487c-6.793091,21.404419 16.589233,53.13916 39.486938,40.481934c20.65625,-12.353394 44.185303,-10.856201 66.175537,-5.409302c13.948364,8.192627 30.156494,6.128174 28.213623,-12.982788c14.992432,17.219116 -19.90918,32.165283 -33.475342,17.619263c-19.122559,-1.747437 -40.234619,-11.290649 -57.111572,3.175171c-19.951538,12.381714 -41.814453,-1.66394 -47.026855,-22.513916c-3.202393,-6.720947 -4.165283,-16.47998 3.737671,-20.370361z"/>
      <path id="svg_79" fill="#2e3436" fill-rule="nonzero" stroke-width="3" stroke-linecap="round" stroke-linejoin="bevel" stroke-miterlimit="4" stroke-dashoffset="0" d="m2034.290283,-1168.434937c12.417847,22.887695 5.568237,49.360107 -14.693604,64.741211c-21.977173,21.224243 -55.399536,23.552734 -84.276123,21.632813c-9.135498,-2.510132 20.765503,-2.6521 27.584351,-3.812988c26.625977,-0.191895 53.654541,-10.315918 68.518066,-33.457275c12.352783,-15.290771 -2.34668,-32.570435 2.86731,-49.10376z"/>
      <path id="svg_80" fill="#2e3436" fill-rule="nonzero" stroke-width="3" stroke-linecap="round" stroke-linejoin="bevel" stroke-miterlimit="4" stroke-dashoffset="0" d="m1600.57666,-1108.839966c-13.135498,16.748413 -4.460327,39.412354 -3.152954,58.443604c2.293945,10.066406 20.835205,24.219604 17.371826,29.053101c-22.716309,-13.217163 -25.796387,-42.566895 -24.918823,-66.278442c0.95105,-8.064819 2.569946,-17.317383 10.699951,-21.218262z"/>
      <path id="svg_81" fill="#2e3436" fill-rule="nonzero" stroke-width="3" stroke-linecap="round" stroke-linejoin="bevel" stroke-miterlimit="4" stroke-dashoffset="0" d="m1671.37146,-998.803101c25.008789,2.518311 48.06543,-11.511353 72.529785,-11.939087c-17.989258,8.363281 -38.421509,9.632568 -57.356445,15.356262c-2.472656,0.936584 -20.893555,0.978821 -15.17334,-3.417175z"/>
      <path id="svg_82" fill="#2e3436" fill-rule="nonzero" stroke-width="3" stroke-linecap="round" stroke-linejoin="bevel" stroke-miterlimit="4" stroke-dashoffset="0" d="m1967.125854,-1159.002075c17.371216,21.875366 2.550903,57.521729 -18.4375,70.614746c-18.169922,4.07251 -12.799316,-3.243408 1.233154,-3.685669c19.709961,-13.367554 26.589111,-41.57605 16.207031,-62.562378l0.997314,-4.366699l0,0z"/>
      <path id="svg_83" fill="#2e3436" fill-rule="nonzero" stroke-width="3" stroke-linecap="round" stroke-linejoin="bevel" stroke-miterlimit="4" stroke-dashoffset="0" d="m1927.215454,-1213.51416c14.751221,27.761475 -1.101929,58.584961 -18.689819,80.644897c-15.009399,14.885376 -37.239136,38.033081 -59.483276,30.166992c-16.633545,-11.924316 2.508911,-8.493286 9.584717,-2.080933c23.354248,-0.681274 42.282471,-20.085449 55.301758,-37.847656c17.174072,-21.655884 15.442871,-45.994385 13.286621,-70.883301z"/>
      <path id="svg_84" fill="#2e3436" fill-rule="nonzero" stroke-width="3" stroke-linecap="round" stroke-linejoin="bevel" stroke-miterlimit="4" stroke-dashoffset="0" d="m1844.168091,-1075.945435c-6.750977,5.948975 -16.07373,1.150146 -23.82373,3.55835c-6.745605,1.645508 -12.878418,-1.968018 -19.36084,-2.802002c-7.408691,-1.18042 -15.27417,-0.295776 -22.343506,-3.057617c-5.005493,-2.994995 -8.604248,-7.91272 -14.009155,-10.363037c-4.312866,-1.274536 -9.151245,-8.534668 -1.312378,-6.92334c5.770386,2.532959 8.759766,8.816772 14.443115,11.617432c5.671753,3.813354 12.567139,4.312988 19.175049,4.568115c7.600586,0.881226 15.226074,1.963013 22.732178,3.230347c6.576904,-2.183838 12.889404,-1.233643 19.474854,-0.652832c2.798828,0.38855 10.243896,-4.931152 5.666504,-0.03894l-0.64209,0.863525l0,0z"/>
      <path id="svg_85" opacity="0.3" fill="#ffffff" fill-rule="evenodd" stroke-width="1.83768px" d="m1914.268555,-1284.709351c-22.076538,29.186035 -61.529541,27.908325 -94.027222,32.370728c-27.256348,-2.035767 -54.55896,-26.201294 -80.787231,-6.203247c-30.22998,15.773193 -63.858521,23.362549 -93.931396,39.644043c-20.213501,-2.502075 -63.551392,13.759766 -34.776978,36.966553c26.362305,13.611938 56.220947,-4.242676 73.805176,-24.107788c27.200073,-26.756592 40.042847,24.991089 69.352051,20.234741c35.274658,6.625244 62.272705,-21.07373 94.443604,-29.500977c32.571533,-3.246094 60.88501,-26.33728 64.556885,-60.037231l0.79126,-4.69812l0.573853,-4.668701l0,0z"/>
      <path id="svg_86" fill="#2e3436" fill-rule="nonzero" stroke-width="3" stroke-linecap="round" stroke-linejoin="bevel" stroke-miterlimit="4" stroke-dashoffset="0" d="m1655.562378,-1166.980103c4.228882,-29.467407 38.790039,-54.434692 67.07251,-39.359985c16.310791,8.235229 22.689941,29.035889 40.653564,34.291748c9.077148,15.5448 -16.283447,-1.746826 -20.078369,-7.620728c-11.455811,-15.993042 -29.778076,-32.305786 -51.029907,-26.144531c-19.200073,3.034058 -27.736206,20.131348 -34.705933,36.067505l-1.911865,2.765991l0,0z"/>
      <path id="svg_87" opacity="0.5" fill="#2e3436" fill-rule="evenodd" stroke-width="1.83768px" d="m1769.183716,-1044.778076c-23.226074,13.065796 -46.989746,27.881104 -74.222778,30.025635c-17.212769,1.512695 -34.586914,-2.379883 -49.989868,-10.058716c-11.862427,-5.084229 -23.109131,-11.831177 -32.142578,-21.145508c-4.875,-4.540161 -10.040161,-9.12793 -16.440918,-11.346436c-5.635864,0.996582 -13.117432,2.654175 -14.973633,8.899048c0.098755,5.120117 3.852173,9.35376 6.51001,13.51355c3.536865,4.941895 8.39917,8.881836 10.695313,14.652466c2.428955,5.104004 5.574707,9.880371 9.809937,13.648071c5.113159,6.233398 11.802124,11.418762 19.821411,13.133057c8.418823,3.132629 16.03125,8.396301 25.052612,9.801453c6.243042,1.336121 12.230835,3.580444 18.03479,6.161316c9.081909,2.723694 18.671143,3.743469 27.365967,7.708069c9.111938,2.959229 19.342773,-0.716064 25.302246,-8.023193c10.541138,-9.956909 21.473145,-19.562073 30.636475,-30.857117c5.457886,-6.023315 9.887939,-13.047485 11.962158,-20.961792c1.891602,-4.764404 4.311523,-9.952148 2.578857,-15.149902z"/>
      <path id="svg_88" opacity="0.5" fill="#2e3436" fill-rule="evenodd" stroke-width="1.83768px" d="m2049.429932,-1156.876587c-21.808472,0.976563 -46.194946,-4.596436 -65.179443,9.268066c-24.13147,14.465576 -46.217407,32.390015 -72.40564,43.245117c-13.901855,10.960571 -37.485718,2.142456 -48.733398,12.921143c7.864136,14.043213 29.097412,11.310303 41.587158,20.46875c17.100708,5.310303 33.568726,16.782104 52.175781,12.838623c18.681885,-0.884033 34.614502,-10.717163 48.557861,-22.441528c18.791016,-12.673218 43.842651,-19.155029 55.150024,-40.741333c5.61377,-10.145996 2.097412,-33.395874 -11.900146,-32.691528c0.375977,3.321899 2.905762,5.825317 3.504395,9.077515"/>
      <path id="svg_89" opacity="0.5" fill="#2e3436" fill-rule="evenodd" stroke-width="1px" d="m1896.902344,-1063.154907c3.661011,-0.524658 10.330811,1.880737 11.026001,5.513062c1.945679,10.162476 -19.29541,21.133301 -22.970947,25.727417c0.237183,1.977539 -17.61731,-9.002075 -0.918701,-19.295532c4.232788,-3.133301 7.650757,-11.197754 12.863647,-11.944946z"/>
      <path id="svg_90" opacity="0.5" fill="#2e3436" fill-rule="evenodd" stroke-width="1px" d="m1790.317017,-1030.995483c3.660645,-0.52478 10.330566,1.880737 11.026001,5.512939c1.945435,10.162598 -19.295776,21.133423 -22.970947,25.727539c0.237183,1.977417 -17.617554,-9.002075 -0.918823,-19.295654c4.232666,-3.133179 7.650635,-11.197632 12.86377,-11.944824z"/>
     </g>
    </g>
   </g>
   <g id="layer1">
    <g transform="matrix(1.20965 0 0 1.06732 -378.267 439.107)" id="g5761">
     <g transform="matrix(0.554271 0 0 0.554271 12.9915 426.279)" id="g5991">
      <path fill="#3e671e" fill-rule="evenodd" stroke-width="1.83768px" d="m1233.590698,-1102.372314c-21.808472,0.97644 -46.194824,-4.596436 -65.179321,9.267944c-24.13147,14.465698 -46.217285,32.390137 -72.40564,43.245117c-13.901733,10.960571 -37.485718,2.142456 -48.733398,12.921143c7.864136,14.043274 29.097534,11.310303 41.58728,20.468689c17.100586,5.310242 33.568481,16.782104 52.175537,12.838562c18.681885,-0.883911 34.614502,-10.717163 48.557983,-22.441406c18.790894,-12.673218 43.842773,-19.154907 55.150024,-40.741211c5.613525,-10.146118 2.09729,-33.395996 -11.900269,-32.69165c0.376099,3.321899 2.905762,5.825439 3.504395,9.077637" id="path3542"/>
      <path fill="url(#linearGradient6020)" fill-rule="evenodd" stroke-width="1px" id="path5697" d="m1012.91095,-673.492859c13.999939,8 135.999939,-1 135.999939,-1c0,0 -45,-58 -30,-86c-8.615845,-16.050415 9,-161 9,-161c0,0 44,-68 49,-72c5,-4 39,-34.999939 35,-36.999939c-4,-2 -28,4 -28,4l-75,60.999878l-13.717529,-40.445435l-28.282471,27.445435c0,0 5,69.000061 4,75.000061c-1,6 -26,114 -26,114l-24.999939,105l-7,11z"/>
      <path fill="#4e9a06" fill-rule="evenodd" stroke-width="1px" id="path5710" d="m1083.910889,-1254.585693l-59,7l-43.999939,32l-64,7l-76,96c0,0 -3,73 0,84c3,10.999939 59,42.999939 59,42.999939c0,0 23,34 39,37c16,3 72,18 80,15c7.999939,-3 28.999939,-24 28.999939,-24l24,-36l57,-45.999939c0,0 67,7 71,4c4,-3 12,-10 12,-10c0,0 19,27.999939 37,19c18,-9 48,-35 48,-35c0,0 22,19 30,19c8,0 21,-6 21,-6c0,0 9,-19 13,-23c4,-4 26,-10 26,-10l6,-26c0,0 -24,-31 -31,-39c-7,-8 -3,-33 -3,-33l-17,-19l-18,1l-48,-18l-43,-48c0,0 -7,-3 -11,-2c-4,1 -27,14 -27,14l-45,3l-66,-6z"/>
      <path fill="#2e3436" fill-rule="nonzero" stroke-width="3" stroke-linecap="round" stroke-linejoin="bevel" stroke-miterlimit="4" stroke-dashoffset="0" id="path5629" d="m1073.159546,-982.556946c-0.395142,39.953308 2.306274,88.760925 -11.78894,126.98761c-16.53125,61.466614 -25.974976,124.711853 -45.245422,185.462646c10.711853,6.402771 -12.650391,2.808777 -1.1203,-6.585815c17.102295,-51.338928 24.435791,-105.348206 38.617065,-157.523438c10.983643,-38.609436 18.679443,-82.465515 14.379761,-122.816833c-0.828003,-7.310669 -0.359985,-19.721375 5.157837,-25.52417z"/>
      <path fill="#2e3436" fill-rule="nonzero" stroke-width="3" stroke-linecap="round" stroke-linejoin="bevel" stroke-miterlimit="4" stroke-dashoffset="0" id="path5631" d="m1147.356201,-668.546936c-13.2146,-20.107117 -28.614014,-40.318542 -29.871948,-65.373962c-5.569458,-47.511353 1.610352,-95.334167 3.290527,-142.882629c-0.335083,-27.430298 11.208496,-52.528137 25.770264,-75.080811c9.909668,-20.126953 24.556396,-37.661194 43.000366,-50.447693c10.548096,-9.773804 20.331055,-32.97522 28.344116,-37.578125c-12.456421,22.098938 -28.842651,41.601074 -48.994629,56.830383c-15.028198,19.416199 -26.515381,41.571289 -37.263062,63.547791c-10.901855,33.344788 -7.163086,69.218079 -11.186157,103.682739c-1.224731,40.466248 -6.753662,84.65332 14.594238,121.176025c4.710205,7.631897 17.545776,16.009705 12.316284,26.126282z"/>
      <path fill="#2e3436" fill-rule="nonzero" stroke-width="3" stroke-linecap="round" stroke-linejoin="bevel" stroke-miterlimit="4" stroke-dashoffset="0" id="path5635" d="m1073.398682,-734.768066c14.28186,12.60614 36.712891,-4.729431 39.468262,-10.288086c-1.669067,10.161377 -39.003784,31.340637 -39.468262,10.288086z"/>
      <path fill="#2e3436" fill-rule="nonzero" stroke-width="3" stroke-linecap="round" stroke-linejoin="bevel" stroke-miterlimit="4" stroke-dashoffset="0" id="path5637" d="m1087.739258,-750.249207c12.13208,14.998413 37.944336,-18.349792 19.47168,4.203247c-3.308594,6.558044 -26.989624,4.64209 -19.47168,-4.203247z"/>
      <path fill="#2e3436" fill-rule="nonzero" stroke-width="3" stroke-linecap="round" stroke-linejoin="bevel" stroke-miterlimit="4" stroke-dashoffset="0" id="path5639" d="m1101.186279,-785.712585c14.223022,-5.686768 -10.086426,10.652405 0,0z"/>
      <path fill="#2e3436" fill-rule="nonzero" stroke-width="3" stroke-linecap="round" stroke-linejoin="bevel" stroke-miterlimit="4" stroke-dashoffset="0" id="path5641" d="m1125.786743,-914.7146c-3.955078,9.12793 -25.26123,14.884949 -6.291382,4.213989c2.369873,-0.936584 4.300781,-2.696045 6.291382,-4.213989z"/>
      <path fill="#2e3436" fill-rule="nonzero" stroke-width="3" stroke-linecap="round" stroke-linejoin="bevel" stroke-miterlimit="4" stroke-dashoffset="0" id="path5643" d="m1050.989014,-659.491577c-3.011353,-13.99823 -4.793701,-50.100098 2.500488,-51.321289c-1.766479,16.896606 2.346558,35.762634 -2.500488,51.321289z"/>
      <path fill="#2e3436" fill-rule="nonzero" stroke-width="3" stroke-linecap="round" stroke-linejoin="bevel" stroke-miterlimit="4" stroke-dashoffset="0" id="path5645" d="m1052.784668,-684.91272c4.804077,5.09259 24.698975,29.865479 8.718262,18.902954c-4.910156,-4.556763 -14.496338,-11.254272 -8.718262,-18.902954z"/>
      <path fill="#2e3436" fill-rule="nonzero" stroke-width="3" stroke-linecap="round" stroke-linejoin="bevel" stroke-miterlimit="4" stroke-dashoffset="0" id="path5651" d="m1105.726685,-961.020691c16.546753,-19.934875 35.396851,-37.716125 58.231934,-50.237244c9.945435,-5.499573 31.278076,-23.038574 33.441528,-22.758545c-19.965454,19.260254 -46.390259,30.839844 -67.202515,48.409668c-7.413818,8.898682 -16.196045,16.496826 -24.470947,24.586121z"/>
      <path fill="#2e3436" fill-rule="nonzero" stroke-width="3" stroke-linecap="round" stroke-linejoin="bevel" stroke-miterlimit="4" stroke-dashoffset="0" id="path5655" d="m1108.78479,-966.913818c-7.641724,-6.968933 -18.330811,-51.946838 -8.982544,-32.033875c2.617065,4.021912 14.590576,28.602478 8.982544,32.033875z"/>
      <path fill="#2e3436" fill-rule="nonzero" stroke-width="3" stroke-linecap="round" stroke-linejoin="bevel" stroke-miterlimit="4" stroke-dashoffset="0" id="path5707" d="m1130.778687,-1029.142578c-17.914307,1.652954 -23.908203,25.258179 -39.76416,28.75293c-10.748169,20.84436 -43.061646,22.999084 -40.95166,51.677673c-13.900879,18.094116 -42.980347,10.286377 -62.547852,20.949585c-21.841187,4.990784 -41.768188,-10.536438 -63.033264,-13.281128c-21.261902,-8.186768 -25.082764,-36.063721 -47.307251,-42.768433c-25.682861,-8.61676 -51.159119,-34.801636 -43.123657,-63.748474c3.802368,-33.234619 -0.107483,-69.805542 27.189453,-95.332153c9.640259,-16.278198 33.618713,-45.587158 38.947876,-50.205322c1.009949,-1.272217 28.882141,-24.225708 45.395264,-18.191284c22.630737,2.602539 48.424561,-0.198364 60.408203,-19.926392c30.331848,-26.737427 73.304504,-17.64856 110.305603,-20.379517c29.402832,0.238525 60.911377,12.145874 88.52478,-3.67749c17.345215,-25.453247 46.204346,-10.251465 55.666992,13.098267c21.431396,24.962158 51.599976,40.978149 84.111084,45.328125c25.277466,2.92688 25.47229,30.630371 27.986938,49.870361c8.848389,17.551025 35.777466,28.032959 28.631836,52.472412c-1.425415,24.218384 -35.339844,31.421143 -44.568604,38.515747c1.385742,25.880371 -34.720093,32.92511 -51.840332,19.33606c-19.65271,-20.335449 -36.209595,7.991699 -53.106567,16.625061c-24.469116,11.506409 -46.463379,-19.889587 -70,-8.549744c-13.02478,-11.455078 -39.774536,3.845215 -45.436768,-7.260376c23.246704,-15.909424 48.819702,3.364258 72.193848,-3.110352c17.623657,6.064453 37.196289,20.779602 55.467773,7.438843c13.951416,-13.856689 33.462769,-31.894043 51.103516,-12.231201c7.324707,8.147583 41.531982,4.9198 29.958374,0.861084c1.226318,-24.147095 27.241821,-26.470825 44.100952,-34.826538c14.547852,-23.849609 -8.74646,-42.036255 -23.326782,-56.759033c-8.384155,-17.515869 0.925415,-45.127197 -23.499756,-52.176392c-24.509399,-5.328369 -49.131226,-12.846802 -69.871094,-27.800171c-19.576904,-13.309204 -33.236816,-58.009277 -62.217041,-41.269409c-20.300537,20.626099 -52.99353,17.529663 -79.301147,14.568237c-36.187988,-3.638184 -73.908203,-5.637207 -109.180237,4.125977c-22.767822,8.965088 -28.812256,33.141357 -56.421631,33.789551c-23.252991,-2.481689 -50.000977,-1.578369 -67.898132,15.681885c-11.578491,16.203613 -31.864197,42.467041 -44.399902,63.917847c-14.580688,23.842896 -2.910095,53.213745 -11.309753,78.884277c-0.644043,29.70166 28.026306,47.421753 52.151367,57.630615c18.166992,11.767334 23.967712,38.497559 49.365295,40.660522c21.682373,5.070679 45.454529,18.432495 66.99823,4.72229c14.189758,-9.770935 40.12616,5.720581 33.930237,-15.523193c6.189697,-11.770142 14.755737,-18.943237 16.375366,-20.213562c14.892578,-9.761108 30.242554,-24.734802 34.153687,-30.68512c12.05188,-7.814392 10.669067,-1.235962 15.079224,-9.931458c2.123291,-8.045593 37.603271,-31.510315 21.059692,-11.060608z"/>
      <path fill="#2e3436" fill-rule="nonzero" stroke-width="3" stroke-linecap="round" stroke-linejoin="bevel" stroke-miterlimit="4" stroke-dashoffset="0" id="path5722" d="m915.58606,-1040.197876c-6.792969,21.404358 16.589417,53.13916 39.487,40.481873c20.65625,-12.353455 44.185303,-10.856262 66.175659,-5.409241c13.948181,8.192627 30.156311,6.128174 28.213562,-12.982849c14.992432,17.219055 -19.909058,32.165283 -33.475403,17.619202c-19.122559,-1.747437 -40.234619,-11.290527 -57.11145,3.175293c-19.95166,12.381653 -41.814453,-1.66394 -47.026978,-22.513977c-3.202454,-6.720886 -4.165222,-16.479919 3.73761,-20.3703z"/>
      <path fill="#2e3436" fill-rule="nonzero" stroke-width="3" stroke-linecap="round" stroke-linejoin="bevel" stroke-miterlimit="4" stroke-dashoffset="0" id="path5724" d="m1336.062744,-1139.658325c12.417847,22.887817 5.568237,49.360107 -14.693604,64.741333c-21.977295,21.224121 -55.399658,23.552612 -84.276123,21.63269c-9.135498,-2.510132 20.765503,-2.6521 27.584351,-3.812988c26.626099,-0.191772 53.654419,-10.315796 68.517944,-33.457275c12.352905,-15.290771 -2.34668,-32.570435 2.867432,-49.10376z"/>
      <path fill="#2e3436" fill-rule="nonzero" stroke-width="3" stroke-linecap="round" stroke-linejoin="bevel" stroke-miterlimit="4" stroke-dashoffset="0" id="path5728" d="m902.34906,-1080.063354c-13.135437,16.748535 -4.460327,39.412354 -3.152893,58.443665c2.293884,10.066345 20.835144,24.219482 17.371948,29.05304c-22.716492,-13.217163 -25.796448,-42.566895 -24.919006,-66.278442c0.951111,-8.064819 2.569946,-17.317383 10.699951,-21.218262z"/>
      <path fill="#2e3436" fill-rule="nonzero" stroke-width="3" stroke-linecap="round" stroke-linejoin="bevel" stroke-miterlimit="4" stroke-dashoffset="0" id="path5730" d="m973.14386,-970.026489c25.008789,2.518311 48.065552,-11.511414 72.529968,-11.939087c-17.98938,8.363159 -38.421692,9.632507 -57.356506,15.356201c-2.472839,0.936584 -20.893616,0.978882 -15.173462,-3.417114z"/>
      <path fill="#2e3436" fill-rule="nonzero" stroke-width="3" stroke-linecap="round" stroke-linejoin="bevel" stroke-miterlimit="4" stroke-dashoffset="0" id="path5732" d="m1268.898193,-1130.225464c17.371338,21.875366 2.550903,57.521851 -18.4375,70.614868c-18.169922,4.072388 -12.799316,-3.243408 1.233276,-3.685791c19.709839,-13.367432 26.589111,-41.575928 16.206909,-62.562378l0.997314,-4.366699l0,0z"/>
      <path fill="#2e3436" fill-rule="nonzero" stroke-width="3" stroke-linecap="round" stroke-linejoin="bevel" stroke-miterlimit="4" stroke-dashoffset="0" id="path5734" d="m1228.987915,-1184.737549c14.751221,27.761475 -1.102051,58.584961 -18.689941,80.64502c-15.009399,14.885254 -37.239014,38.032959 -59.483276,30.166992c-16.633423,-11.924316 2.508911,-8.493408 9.584839,-2.081055c23.35437,-0.681274 42.282349,-20.085449 55.301636,-37.847534c17.174072,-21.655884 15.442871,-45.994507 13.286743,-70.883423z"/>
      <path fill="#2e3436" fill-rule="nonzero" stroke-width="3" stroke-linecap="round" stroke-linejoin="bevel" stroke-miterlimit="4" stroke-dashoffset="0" id="path5736" d="m1145.940552,-1047.168823c-6.751099,5.948975 -16.073853,1.150146 -23.82373,3.55835c-6.745728,1.64563 -12.878662,-1.968018 -19.360962,-2.802002c-7.408691,-1.180298 -15.27417,-0.295654 -22.343506,-3.057495c-5.005615,-2.994995 -8.604248,-7.912842 -14.009033,-10.363037c-4.312988,-1.274658 -9.151367,-8.534668 -1.312622,-6.92334c5.770508,2.532959 8.759888,8.816772 14.443359,11.61731c5.671753,3.813477 12.567261,4.312988 19.175049,4.568237c7.600464,0.881104 15.226074,1.963013 22.732056,3.230225c6.576904,-2.183838 12.889404,-1.233643 19.474976,-0.65271c2.798706,0.38855 10.243896,-4.931274 5.666504,-0.039063l-0.64209,0.863525l0,0z"/>
      <path opacity="0.3" fill="#ffffff" fill-rule="evenodd" stroke-width="1.83768px" id="path2747" d="m1216.041016,-1255.932739c-22.07666,29.186157 -61.529541,27.908325 -94.027344,32.37085c-27.256104,-2.035889 -54.558838,-26.201416 -80.787109,-6.203369c-30.230103,15.773315 -63.858582,23.362671 -93.931335,39.644043c-20.213623,-2.501953 -63.551331,13.759766 -34.776978,36.966553c26.362305,13.612061 56.220825,-4.242554 73.805054,-24.107666c27.200134,-26.756714 40.04303,24.991089 69.352112,20.234619c35.274536,6.625366 62.272583,-21.073608 94.443604,-29.500977c32.571655,-3.246094 60.88501,-26.337158 64.556885,-60.037231l0.791382,-4.697998l0.57373,-4.668823l0,0z"/>
      <path fill="#2e3436" fill-rule="nonzero" stroke-width="3" stroke-linecap="round" stroke-linejoin="bevel" stroke-miterlimit="4" stroke-dashoffset="0" id="path5726" d="m957.334778,-1138.203491c4.228943,-29.467407 38.7901,-54.434692 67.072571,-39.359985c16.310669,8.235352 22.689697,29.035889 40.653564,34.29187c9.077148,15.5448 -16.283569,-1.746948 -20.078369,-7.62085c-11.455933,-15.99292 -29.778015,-32.305786 -51.030029,-26.144409c-19.199951,3.033936 -27.736023,20.131348 -34.705933,36.067383l-1.911804,2.765991l0,0z"/>
      <path opacity="0.5" fill="#2e3436" fill-rule="evenodd" stroke-width="1.83768px" id="path3526" d="m1070.956055,-1016.001526c-23.226074,13.065735 -46.989685,27.881104 -74.222534,30.025635c-17.21283,1.512695 -34.587158,-2.379883 -49.989929,-10.058655c-11.862427,-5.084351 -23.109131,-11.831177 -32.142517,-21.145447c-4.875,-4.540161 -10.040344,-9.127869 -16.441162,-11.346375c-5.635681,0.99646 -13.117371,2.654053 -14.973572,8.898987c0.098816,5.119934 3.852112,9.353577 6.51001,13.513489c3.536926,4.941772 8.399353,8.881775 10.695251,14.652466c2.428955,5.104004 5.574829,9.880371 9.810059,13.648071c5.113098,6.233276 11.802063,11.418701 19.82135,13.133057c8.418823,3.132629 16.031189,8.396301 25.052612,9.801453c6.243164,1.336121 12.230835,3.580444 18.034912,6.161316c9.081787,2.723633 18.671021,3.743469 27.366028,7.708008c9.111755,2.959229 19.34259,-0.716003 25.302124,-8.023193c10.541138,-9.956848 21.473145,-19.562012 30.636353,-30.857117c5.457886,-6.023315 9.888062,-13.047485 11.962158,-20.961731c1.891846,-4.764404 4.311768,-9.952148 2.578857,-15.149963z"/>
      <path opacity="0.5" fill="#2e3436" fill-rule="evenodd" stroke-width="1.83768px" id="path3528" d="m1351.202148,-1128.099976c-21.80835,0.976563 -46.194702,-4.596436 -65.179321,9.268066c-24.13147,14.465698 -46.217163,32.390137 -72.405518,43.245117c-13.901733,10.960693 -37.48584,2.142456 -48.733398,12.921265c7.864014,14.043213 29.097412,11.310181 41.58728,20.468628c17.100464,5.310303 33.568359,16.782104 52.175537,12.838623c18.681885,-0.883911 34.614502,-10.717163 48.557861,-22.441528c18.791016,-12.673096 43.842773,-19.154907 55.150024,-40.741211c5.613647,-10.145996 2.097412,-33.395996 -11.900269,-32.69165c0.376099,3.322021 2.905884,5.825439 3.504395,9.077637"/>
      <path opacity="0.5" fill="#2e3436" fill-rule="evenodd" stroke-width="1px" id="path3538" d="m1198.674805,-1034.378296c3.660889,-0.524658 10.330688,1.880737 11.026123,5.513062c1.945435,10.162415 -19.295776,21.133179 -22.971069,25.727417c0.237183,1.977417 -17.61731,-9.002075 -0.918823,-19.295593c4.232788,-3.13324 7.650635,-11.197693 12.86377,-11.944885z"/>
      <path opacity="0.5" fill="#2e3436" fill-rule="evenodd" stroke-width="1px" d="m1092.089355,-1002.218994c3.660889,-0.524658 10.330688,1.880737 11.026123,5.513062c1.945435,10.162537 -19.295654,21.133362 -22.971069,25.727539c0.237183,1.977417 -17.61731,-9.002075 -0.918823,-19.295654c4.232788,-3.13324 7.650635,-11.197754 12.86377,-11.944946z" id="path3540"/>
     </g>
    </g>
   </g>
  </g>
 </g>
</svg>