<?xml version="1.0" encoding="utf-8"?>
<!-- Generator: Adobe Illustrator 16.0.0, SVG Export Plug-In . SVG Version: 6.00 Build 0)  -->
<!DOCTYPE svg PUBLIC "-//W3C//DTD SVG 1.1//EN" "http://www.w3.org/Graphics/SVG/1.1/DTD/svg11.dtd">
<svg version="1.1" id="Layer_1" xmlns="http://www.w3.org/2000/svg" xmlns:xlink="http://www.w3.org/1999/xlink" x="0px" y="0px"
	 width="864px" height="864px" viewBox="0 0 864 864" enable-background="new 0 0 864 864" xml:space="preserve">
<g>
	<path fill-rule="evenodd" clip-rule="evenodd" fill="#FBB040" d="M673.595,726.513c-1.508-17.36-5.877-25.149-19.89-32.097
		c-7.659-3.796-16.122-6.494-24.526-8.169c-27.145-5.412-53.666,0.166-80.133,5.714c-9.367,1.963-19.229,0.611-13.188-0.842
		c-9.478-11.412-20.983-9.842-17.488-11.763c9.363-48.113,31.525-91.14,51.263-136.068c-3.202,0.537,0.613-19.235,0.617-19.239
		c18.298-8.799,35.254-20.262,50.132-35.777c3.778-3.941,7.354-7.982,10.107-12.428c0.001,0,0.002-0.001,0.003-0.001
		c10.901-4.271,15.715-26.2,17.259-40.561c8.443-5.851,13.706-15.017,15.432-27.46c2.84-20.482-1.378-39.963-13.637-57.019
		c-6.302-8.766-15.875-12.918-25.971-9.892c-9.713,2.911-19.002,8.092-27.592,13.645c-1.194-1.525-2.494-2.917-3.877-4.188
		c0.837-0.714,1.674-1.426,2.5-2.137c-13.077-16.718-30.521-22.688-45.735-18.712c0.011-0.006,0.02-0.012,0.03-0.019
		c10.439-6.13,16.019-19.638,18.84-29.684c15.327-20.717,22.222-53.98,14.571-75.479c-2.144-0.297-4.206-0.582-6.223-0.861
		c-0.02-0.83-0.046-1.723-0.078-2.662c5.038-1.586,7.973-4.867,8.991-10.496c1.922-10.621-1.482-19.563-9.613-26.505
		c-1.922-1.641-4.161-2.805-6.56-3.533c-9.758-16.034-51.445-54.794-51.445-54.794c8.396-17.159,18.94-33.38,18.736-52.411
		c1.884-14.69-19.838-21.151-31.048-20.27c-23.33-1.642-44.383,5.047-64.375,15.812c-0.657,0.354-1.211,1.237-1.571,2.198
		c-2.552-1.981-5.268-4.563-7.68-7.864c-7.243-9.912-21.574-17.439-36.288-17.228c-0.974,0.014-2.13,0.314-3.431,0.851
		c-9.088,2.286-17.92,4.877-25.943,9.03c-32.823,16.986-54.066,43.021-60.487,80.178c-0.466,2.691-2.555,5.47-4.615,7.455
		c-9.183,8.85-19.372,16.762-27.837,26.229c-18.453,20.643-26.884,44.553-26.834,70.916l-0.002,0.003l0.002,0.012
		c0.01,4.941,0.316,9.969,0.912,15.078l1.401-1.312l2.595,15.443l-0.867,0.605c1.122,9.841,4.208,19.238,8.745,27.96
		c0.203,0.469,0.461,0.936,0.744,1.401c30.251,56.197,94.568,62.369,89.955,62.944c1.154,8.79-0.895,23.062,0.257,31.84
		c0.113-0.021,4.433,4.566,4.545,4.546c-6.487,22.087-8.76,24.717-20.773,61.934c-3.494,18.461,4.081,48.489,13.752,56.535
		c5.213,5.956,19.078,19.047,19.361,20.455c11.25,8.926,28.249,13.148,36.347,11.658c-0.374-0.369,3.358,0.271,5.815,0.793
		c-14.097,46.236-28.583,92.355-42.335,138.692c-6.479,21.831-19.603,35.375-42.66,37.033c-15.015,1.081-30.153,0.351-45.233,0.641
		c-17.402,0.336-35.027-0.685-52.145,1.758c-22.856,3.262-34.554,26.622-27.702,42.589c6.762-10.5,2.223,1.564,1.022,16.716
		c-0.797,10.067,1.297,19.199,10.083,25.385c9.139,6.436,18.839,8.072,29.096,2.62c-6.075-28.734,0.106-7.362,11.481,2.599
		c12.711,11.13,31.121,9.956,45.166-2.206c9.891-8.565,15.618-16.716,15.618-9.187c22.982,10.816,42.669,5.438,55.844-14.885
		c1.358-2.096,4.142-3.863,6.608-4.553c19.517-5.453,39.203-10.315,58.641-16.03c5.994-1.761,11.886-4.902,16.938-8.616
		c10.198-7.499,10.805-16.749,2.205-25.947c-3.551-3.8-7.634-7.155-11.745-10.365c-15.553-12.145-25.863-25.554-19.428-47.49
		c8.542-29.122,14.377-59.036,22.896-88.166c3.851-13.166,8.724-26.032,13.676-38.875c3.749-0.261,6.031-0.495,6.031-0.495
		s48.237,0.062,77.021-2.114c-17.344,5.475-31.435,14.907-39.874,34.281c-10.959,25.152-24.474,49.364-38.795,72.814
		c-8.63,14.131-20.336,26.579-31.812,38.693c-5.691,6.007-7.499,8.871-1.334,14.884c6.442,6.284,13.335,12.107,20.052,18.108
		c6.734,6.019,13.408,11.935,15.039,21.686c0.25,1.494,4.143,3.455,6.273,3.366c7.8-0.329,15.555-1.71,23.356-2.083
		c2.46-0.118,5.689,0.998,7.411,2.711c10.115,10.062,21.573,18.382,36.353,14.689c45.943-11.479,39.149,10.655,60.069,13.21
		c13.592,1.658,40.115-11.499,32.6,1.571c18.179-0.938,36.822-21.53,38.925-35.695C669.403,739.109,667.27,714.523,673.595,726.513z
		 M357.931,372.607c-1.18,3.133-2.407,7.007-3.525,11.934c0.773-5.537,1.547-11.075,2.32-16.611
		C357.048,369.503,357.463,371.06,357.931,372.607z"/>
	<path fill-rule="evenodd" clip-rule="evenodd" fill="#FBB040" d="M210.971,680.24c0.443-0.094,0.885-0.188,1.327-0.28
		c0.912-14.051,10.087-9.594,13.609,8.805c1.954-19.206,11.673-23.252,13.785-8.396c0.399,0.071,0.799,0.142,1.199,0.211
		c2.484-15.918,11.979-19.424,13.293-5.246c2.23-4.547,3.664-9.399,4.019-14.329c0.832-11.596,0.772-23.259,1.764-34.836
		c1.417-16.538,8.97-24.438,25.176-27.422c15.974-2.942,32.007-5.602,47.879-9.017c3.007-0.647,6.713-3.736,7.815-6.581
		c5.079-13.12,2.949-25.897-3.094-38.269c-33,11.116-24.988-0.346-13.939-0.346c0.021-1.029,0.042-2.059,0.064-3.087
		c-23.617-0.699-47.379-3.337-70.811-1.577c-25.742,1.936-58.073,22.119-72.037,44.336c-13.623,36.26-12.664,61.697-0.341,82.274
		c0.751-12.205,11.103-9.031,14.763,4.756c0.309-0.144,0.619-0.289,0.928-0.434C197.219,659.107,207.464,665.352,210.971,680.24z"/>
</g>
<g>
	<path fill-rule="evenodd" clip-rule="evenodd" fill="#FFFFFF" d="M374.208,237.747c8.617,0.778,17.267,1.302,25.839,2.425
		c5.332,0.699,10.496,2.896,15.827,3.344c5.901,0.498,11.968,0.239,17.848-0.55c6.44-0.865,12.688-3.212,19.131-4.007
		c8.572-1.058,17.252-1.24,26.277-1.825c0.262,7.266-2.876,10.739-9.658,11.719c-8.627,1.248-15.964,4.142-19.414,13.625
		c-0.874,2.401-6.006,3.721-9.421,4.653C416.771,273.644,384.555,259.292,374.208,237.747z"/>
	<path fill-rule="evenodd" clip-rule="evenodd" fill="#FFFFFF" d="M481.438,245.452c0.463-4.347,3.438-5.709,9.208-7.021
		c14.227-3.233,27.992-8.504,41.933-12.984c1.521-0.488,2.982-1.156,4.756-1.851c-2.547,16.606-22.326,31.285-32.988,32.916
		c-1.25,0.191-2.794,0.134-3.862-0.438C494.239,252.727,488.096,249.192,481.438,245.452z"/>
</g>
<path fill-rule="evenodd" clip-rule="evenodd" fill="#F9ED32" d="M333.083,251.209c-13.883,1.898-21.216,1.713-29.121-11.106
	c-9.346-15.158,10.316-38.77,33.113-39.055c9.557-0.12,17.61,8.487,20.441,14.839c10.831,24.303,42.384,50.434,42.384,50.434
	s25.022,8.543,35.286,6.274s14.47-6.568,20.96-5.241c7.785,1.592,28.33,1.396,47.376-8.425
	c19.283-9.943,27.292-15.035,31.026-24.427c4.755-11.958,10.724-24.484,9.49-30.66c-4.118-20.621,12.41-30.663,22.222-27.344
	c18.172,6.147,24.625,20.042,21.891,33.912c-3.074,15.593-11.739,14.965-22.782,11.581c-10.739-3.292-7.676-8.201-7.676-8.201
	s2.757,13.553-0.514,26.671s-8.396,36.017-44.215,57.584c0,0-25.256-21.493-28.391-19.566S427.608,312,385.621,304.928
	S341,265.144,340.725,256.61S333.083,251.209,333.083,251.209z"/>
<path fill-rule="evenodd" clip-rule="evenodd" fill="#F6A4B9" d="M469.351,272.859c-3.87-2.541-12.061-5.023-12.971-9.122
	c-1.827-8.235,7.437-9.558,13.067-10.333c7.201-0.992,14.854,0.159,22.122,1.456c2.287,0.408,5.071,4.063,5.51,6.6
	c0.274,1.583-3.784,3.786-5.388,5.624C485.432,274.259,479.145,272.938,469.351,272.859z"/>
<g>
	<g>
		<path fill-rule="evenodd" clip-rule="evenodd" d="M537.725,133.873c-0.31,1.652-0.619,3.303-0.929,4.955
			c1.71-0.179,3.421-0.358,5.131-0.538l-0.048-0.072c0.631,2.592,0.533,5.743,2.019,7.679c6.526,8.507,13.381,16.777,20.396,24.89
			c2.573,2.976,5.612,5.805,8.974,7.799c13.574,8.053,18.699,20.267,15.404,36.087c-0.786,3.771,0.346,7.973,0.767,11.958
			c2.974,28.218,0.17,55.22-18.146,78.342c-5.113,6.455-11.953,11.542-18.76,17.974c18.571,0.83,33.832,8.564,45.073,21.647
			c9.851-2.933,18.771-6.304,27.995-8.149c11.061-2.211,21.04,1.211,27.615,10.644c15.726,22.558,21.613,47.109,12.562,73.907
			c-4.39,12.997-9.947,18.105-26.879,26.365c9.391,28.105-11.479,41.973-28.133,57.909c-1.252,1.198-2.63,2.407-4.175,3.135
			c-16.352,7.705-23.86,22.585-31.325,37.739c-19.062,38.699-37.026,77.821-48.669,119.525c-1.144,4.097-1.934,8.292-2.661,11.455
			c6.205,3.884,11.592,7.255,18.349,11.483c10.081-1.864,22.362-3.667,34.413-6.463c23.771-5.515,47.274-5.148,70.207,3.177
			c14.594,5.298,27.303,13.784,31.246,30.092c1.348,5.574,0.562,12.008-0.62,17.767c-1.656,8.076-4.594,15.887-6.96,23.729
			c11.108,0.871,21.565,1.287,31.878,2.737c3.154,0.443,5.909,3.725,8.847,5.707c-2.731,2.167-5.218,5.75-8.234,6.271
			c-19.13,3.306-38.388,5.863-57.582,8.81c-11.393,1.749-22.683,4.485-34.132,5.465c-14.367,1.229-28.848,1.34-43.281,1.355
			c-2.48,0.001-4.965-2.884-7.447-4.437c1.662-2.521,3.168-5.168,5.041-7.524c1.285-1.614,3.08-2.824,4.646-4.215
			c-0.319-0.781-0.641-1.562-0.961-2.344c-11.443,1.91-22.854,4.056-34.34,5.659c-9.42,1.315-18.911,2.459-28.401,2.781
			c-6.687,0.227-12.014-2.576-11.092-10.891c-8.473,0.688-16.242,1.302-24.007,1.972c-1.135,0.1-2.713,0.079-3.3,0.775
			c-14.174,16.821-35.142,15.419-53.808,19.938c-10.351,2.505-20.998,3.784-32.058,5.712c2.036,11.385-5.167,15.265-13.687,16.612
			c-15.303,2.423-30.833,3.423-46.121,5.923c-9.79,1.602-19.681,1.894-28.78,8.319c-12.167,8.591-26.127,7.866-39.818,1.704
			c-3.97-1.784-8.57-2.828-12.926-2.984c-22.05-0.781-44.117-1.064-66.169-1.786c-3.009-0.097-5.97-1.669-10.32-2.965
			c7.727-12.21,20.98-11.403,32.217-17.437c-1.494-10.867-2.803-22.278-4.673-33.598c-3.578-21.659,14.656-45.48,38.748-47.104
			c20.763-1.397,41.749,0.056,62.614,0.816c16.292,0.595,32.93,2.768,47.455-6.466c5.947-3.781,12.295-9.815,14.461-16.185
			c13.134-38.617,25.128-77.621,37.464-116.508c2.361-7.443,4.705-14.9,6.687-22.448c0.383-1.461-0.502-4.265-1.622-4.832
			c-1.175-0.595-4.26,0.207-4.929,1.336c-16.518,27.87-43.135,36.904-73.203,40.111c-10.921,1.165-21.795,3.181-32.541,5.502
			c-18.382,3.97-23.671,11.7-23.573,30.651c0.068,13.018,0.199,26.271-2.039,39.007c-2.827,16.098-13.607,26.619-29.535,30.825
			c-16.674,4.401-31.417,0.867-43.743-11.866c-27.051-27.945-26.265-74.698-7.288-107.103
			c15.472-26.421,37.511-45.078,68.283-48.893c17.892-2.219,36.428,1.072,54.684,1.361c11.82,0.188,23.685-0.185,35.465-1.116
			c3.999-0.315,7.801-3.112,12.215-4.997c-32.581-39.575-22.553-78.938-2.929-119.437c-15.088-13.78-9.818-32.231-9.133-50.242
			c-46.336-10.384-80.842-35.5-94.736-82.69c-13.632-46.303-3.124-87.524,32.446-122.987c-24.305-1.708-43.565,8.58-63.583,16.118
			c18.038-21.078,42.987-19.751,67.47-21.011c-22.126-7.74-44.583-2.877-68.984-0.009c7.663-9.147,16.139-11.667,24.685-10.852
			c14.309,1.365,28.455,4.405,42.679,6.689c2.574,0.413,5.188,0.578,7.938-0.336c-21.964-14.501-46.97-12.562-71.385-13.736
			c-0.285-0.925-0.571-1.851-0.855-2.777c4.885-1.673,9.805-4.859,14.649-4.748c17.877,0.412,35.019,4.328,50.802,13.392
			c13.999,8.039,16.29,6.315,19.836-9.314c8.614-37.958,30.923-65.029,66.914-80.19c13.085-5.512,26.575-9.767,41.316-8.064
			c14.711,1.698,24.823,8.819,28.878,21.569c16.368-4.976,31.788-10.786,47.722-14.165c13.887-2.945,28.306-3.144,41.45,4.708
			c13.166,7.866,17.768,17.458,13.475,32.087c-2.99,10.192-7.419,19.972-11.396,29.86c-1.806,4.49-4.071,8.794-6.262,13.466
			c2.766,1.719,4.935,3.069,7.485,4.655c16.124-16.135,31.338-33.485,54.943-38.221c3.147-0.632,6.895,1.724,12.022,3.161
			c-24.165,9.999-48.112,16.358-65.368,37.106c2.835-0.249,4.485-0.394,6.138-0.538L537.725,133.873z M461.237,92.895
			c5.021-6.357,10.044-12.712,15.066-19.069c-0.456-0.452-0.913-0.904-1.37-1.356c-9.494,8.581-18.989,17.162-28.485,25.741
			c0.542,0.757,1.083,1.513,1.624,2.27c4.482-2.632,8.965-5.264,13.447-7.895c1.858,0.965,3.705,2.739,5.575,2.766
			c14.225,0.207,25.411,6.904,35.485,16.07c4.859,4.421,9.534,9.045,14.804,14.064c8.396-17.159,18.94-33.38,18.736-52.411
			c-6.689,12.695-13.718,26.032-20.745,39.37c-0.7-0.332-1.4-0.664-2.102-0.996c3.076-11.504,6.151-23.009,9.228-34.513
			c-0.527-0.11-1.055-0.22-1.582-0.33c-6.167,7.958-12.335,15.917-18.503,23.877c-0.447-0.301-0.893-0.603-1.34-0.904
			c4.356-9.566,8.713-19.131,13.069-28.697c-0.626-0.296-1.252-0.591-1.878-0.887c-8.598,8.134-17.194,16.267-25.792,24.4
			c-0.393-0.216-0.786-0.433-1.178-0.65c4.565-8.35,9.132-16.699,13.699-25.049c-5.561,2.631-10.016,6.527-14.889,9.799
			C476.643,83.507,468.888,88.09,461.237,92.895z M423.154,102.108c1.504,2.599,3.009,5.197,4.514,7.796
			c0.875-0.479,1.75-0.958,2.625-1.438c4.185-15.755,5.564-31.512,1.153-45.515c-2.648,12.269-5.582,25.861-8.516,39.453
			c-0.807-14.986-1.613-29.971-2.525-46.946c-2.824,8.562-4.587,15.487-7.389,21.962c-2.826,6.531-6.683,12.614-10.089,18.893
			c-0.589-0.274-1.179-0.55-1.769-0.825c1.772-10.4,3.544-20.801,5.316-31.202c-0.42-0.209-0.84-0.418-1.26-0.627
			c-7.949,12.349-15.898,24.698-25.007,38.848c2.267-9.889,4.051-17.67,5.834-25.451c-0.518-0.294-1.035-0.59-1.552-0.884
			c-9.794,12.997-19.588,25.992-29.381,38.989c-0.486-0.231-0.972-0.463-1.457-0.695c5.973-14.175,11.945-28.35,17.918-42.525
			c-16.545,13.959-24.878,32.247-30.04,53.702c6.278-1.571,12.96-1.172,15.649-4.255c16.074-18.427,35.347-23.982,58.659-17.69
			C417.984,104.277,420.717,102.679,423.154,102.108z M193.073,578.009c-0.88,1.407-1.762,2.814-2.642,4.222
			c-16.935,19.502-22.074,63.674-9.751,84.251c0.751-12.205,1.499-24.354,2.247-36.506c0.511-0.034,1.023-0.067,1.534-0.102
			c3.661,13.788,7.321,27.576,10.982,41.363c0.309-0.144,0.619-0.289,0.928-0.434c0.849-11.696,1.698-23.392,2.547-35.087
			c0.51-0.047,1.021-0.094,1.531-0.14c3.507,14.887,7.015,29.774,10.522,44.663c0.443-0.094,0.885-0.188,1.327-0.28
			c0.912-14.051,1.825-28.102,2.737-42.153c0.371-0.011,0.741-0.021,1.112-0.032c3.119,16.296,6.238,32.592,9.76,50.99
			c1.954-19.206,3.675-36.127,5.397-53.048c0.685,0.027,1.37,0.054,2.055,0.08c2.111,14.858,4.221,29.716,6.333,44.572
			c0.399,0.071,0.799,0.142,1.199,0.211c2.484-15.918,4.968-31.837,7.452-47.755c0.632-0.008,1.264-0.015,1.896-0.022
			c1.316,14.177,2.631,28.354,3.946,42.531c2.23-4.547,3.664-9.399,4.019-14.329c0.832-11.596,0.772-23.259,1.764-34.836
			c1.417-16.538,8.97-24.438,25.176-27.422c15.974-2.942,32.007-5.602,47.879-9.017c3.007-0.647,6.713-3.736,7.815-6.581
			c5.079-13.12,2.949-25.897-3.094-38.269c-33,11.116-40.313,11.18-47.646-0.346c11.61,0,22.658,0,33.707,0
			c0.021-1.029,0.042-2.059,0.064-3.087c-23.617-0.699-47.379-3.337-70.811-1.577C227.315,541.807,207.037,555.792,193.073,578.009z
			 M537.904,322.496c5.169-3.417,10.336-6.833,15.503-10.25c1.532-0.65,3.317-0.987,4.556-1.997
			c21.905-17.85,33.477-60.261,24.349-85.913c-6.06-0.839-11.502-1.591-16.943-2.344c11.76,0.222,18.037-2.853,19.634-11.675
			c1.922-10.621-1.482-19.563-9.613-26.505c-6.34-5.412-16.107-5.718-23.778-1.864c-7.257,3.646-7.358,9.69-6.455,16.344
			c3.701,27.268-9.671,48.658-27.443,56.044c-12.093,5.026-19.911,15.473-32.28,19.922c6.271,3.794,12.063,7.087,17.641,10.714
			c13.713,8.92,13.678,8.989,26.842-1.21c1.377-1.066,2.706-2.214,3.946-3.436c21.805-21.474,27.968-46.466,16.374-75.653
			c3.304,1.71,6.082,3.146,8.858,4.583c0.765-0.531,1.529-1.061,2.292-1.592c-1.662-4.361-3.325-8.723-4.988-13.083
			c3.517,3.186,6.51,7.076,7.331,11.38c0.376,1.966-3.529,4.75-6.035,7.829c9.165,34.608-9.031,69.765-44.729,84.256
			c-6.913-5.166-13.869-10.351-20.811-15.553c-4.585-3.436-8.571-4.262-13.85-0.161c-6.6,5.127-13.99,9.441-21.518,13.131
			c-25.426,12.464-51.969,18.739-79.891,9.916c-21.451-6.778-36.665-20.191-38.519-44.157c-0.676-8.737,0.76-17.639,1.144-24.79
			c-3.401-2.123-8.719-4.05-8.623-5.647c0.272-4.481,2.779-8.828,4.404-13.226c0.455,0.248,0.91,0.496,1.363,0.743
			c-0.799,4.111-1.599,8.222-2.398,12.333c4.3-0.73,8.6-1.459,13.069-2.218c-0.364,0.893-0.929,2.16-1.406,3.46
			c-12.638,34.408,6.834,66.478,41.826,71.988c28.307,4.458,53.317-3.604,77.091-17.706c4.435-2.63,8.352-6.135,12.248-9.042
			c-7.531-2.123-14.067-4.18-20.718-5.754c-3.562-0.843-7.693-2.048-10.929-1.039c-15.858,4.946-30.764,2.968-45.55-4.004
			c-21.874-10.316-33.917-28.915-44.089-49.677c-2.526-5.154-7.847-10.124-13.097-12.517c-11.903-5.424-30.541,4.276-35.235,18.977
			c-2.033,6.368-1.225,15.028,1.545,21.182c3.22,7.154,10.888,8.759,18.819,5.211c1.243-0.556,3.47,1.086,5.241,1.711
			c-8.294,2.807-16.455,3.11-23.655-1.567c-6.95-4.513-9.52-12.264-8.143-19.794c1.195-6.534,4.151-13.53,8.405-18.567
			c10.415-12.328,23.812-16.627,38.837-9.79c-1.586-12.67-4.579-24.97-4.25-37.181c0.333-12.336,3.957-24.583,6.139-36.871
			c-0.596-0.497-1.191-0.995-1.787-1.493c-3.767,3.723-7.533,7.446-12.558,12.413c4.077-41.985,24.35-71.585,59.087-92.636
			c-10.291,2.509-20.344,5.207-29.374,9.88c-32.823,16.986-54.066,43.021-60.487,80.178c-0.466,2.691-2.555,5.47-4.615,7.455
			c-9.183,8.85-19.372,16.762-27.837,26.229c-21.915,24.516-29.697,53.64-25.922,86.008c3.494-32.251,4.1-34.802,9.283-41.78
			c1.275,20.955,2.658,43.683,4.042,66.412c-0.797,0.221-1.593,0.442-2.39,0.664c-2.642-3.575-5.284-7.148-7.806-10.56
			c5.673,49.78,61.466,88.279,102.397,84.889c-10.12-3.636-22.055-1.629-29.091-9.301c18.955,0,38.524,0,58.093,0
			c0.11,1.213,0.22,2.426,0.33,3.64c-6.924,2.009-13.849,4.019-20.774,6.028c10.984-0.59,22.184-1.416,32.235-5.25
			c4.907-1.872,7.765-9.287,11.396-14.306c15.089-20.857,40.833-19.981,53.335,2.254c3.666,6.521,8.563,8.822,15.384,8.78
			c1.454,2.907,2.908,5.812,4.529,9.056c4.429-5.76,7.765-10.098,12.317-16.02c-7.266,3.08-12.204,5.174-17.144,7.268
			c10.698-9.081,21.396-18.162,32.096-27.242c0.369,0.324,0.738,0.648,1.107,0.973c-3.22,4.553-6.439,9.107-10.428,14.747
			C511.454,333.727,525.776,331.789,537.904,322.496z M338.661,455.435c-6.745,18.028-1.089,50.568,9.856,59.674
			c-2.261-9.615-4.561-19.401-6.862-29.188c8.841,12.401,16.546,24.945,23.812,37.739c1.516,2.67,1.401,6.265,2.49,11.686
			c11.25,8.926,26.93,15.629,35.028,14.139c-7.978-7.867-8.027-15.167,0.202-21.451c0,5.153,0,10.044,0,14.936
			c0.709,0.122,1.418,0.244,2.126,0.365c1.977-2.734,3.953-5.471,7.484-10.358c-1.663,7.354-2.439,12.191-3.854,16.834
			c-14.142,46.393-28.68,92.667-42.479,139.16c-6.479,21.831-19.603,35.375-42.66,37.033c-15.015,1.081-30.153,0.351-45.233,0.641
			c-17.402,0.336-35.027-0.685-52.145,1.758c-22.856,3.262-34.554,26.622-27.702,42.589c6.762-10.5,13.107-21.264,25.875-25.522
			c-1.292,2.185-3.182,3.811-4.87,5.624c-9.774,10.499-18.782,21.463-19.983,36.614c-0.797,10.067,1.297,19.199,10.083,25.385
			c9.139,6.436,18.839,8.072,29.096,2.62c-6.075-28.734-1.132-44.666,17.46-54.428c-3.518,5.165-6.619,9.479-9.474,13.95
			c-9.412,14.744-7.88,33.115,3.495,43.076c12.711,11.13,31.121,9.956,45.166-2.206c9.891-8.565,12.336-20.065,15.618-31.917
			c0,7.6,0,15.201,0,22.73c22.982,10.816,42.669,5.438,55.844-14.885c1.358-2.096,4.142-3.863,6.608-4.553
			c19.517-5.453,39.203-10.315,58.641-16.03c5.994-1.761,11.886-4.902,16.938-8.616c10.198-7.499,10.805-16.749,2.205-25.947
			c-3.551-3.8-7.634-7.155-11.745-10.365c-15.553-12.145-25.863-25.554-19.428-47.49c8.542-29.122,14.377-59.036,22.896-88.166
			c6.038-20.646,14.59-40.557,22.021-60.795c0.926,0.317,1.853,0.635,2.78,0.952c-0.966,4.517-1.931,9.033-2.896,13.55
			c0.92,0.301,1.841,0.601,2.762,0.901c2.161-5.641,4.324-11.281,6.462-16.858c2.534,10.448,0.119,18.498-11.422,22.88
			c16.114-1.526,31.553-3.564,46.649-7.078c41.47-9.651,80.497-24.464,110.875-56.145c8.564-8.934,16.1-18.375,15.343-31.885
			c-0.31-5.529-2.287-7.6-8.393-8.156c-18.594-1.692-37.085-4.508-57.224-7.093c-13.917,23.361-37.928,32.336-66.685,29.63
			c-27.793-2.616-51.614-14.575-71.059-34.494c-8.298,5.516-15.348,2.339-19.149-7.59c3.914,2.702,8.264,5.706,12.615,8.709
			c0.748-0.577,1.497-1.153,2.245-1.731c-1.037-3.735-2.074-7.47-3.437-12.379c4.119,3.554,7.527,6.235,10.64,9.223
			c18.064,17.342,39.226,28.323,64.006,32.788c31.321,5.645,57.52-7.239,70.843-35.928c11.301-24.331,12.466-49.663,6.666-76.36
			c2.128,2.31,3.816,4.142,5.663,6.145c2.061-1.936,3.921-3.746,5.852-5.477c2.074-1.861,4.215-3.648,6.299-5.442
			c-22.969-29.364-59.42-25.619-73.576,7.061c-1.931,4.458-2.766,9.385-4.199,14.068c-2.954,9.648-4.908,19.777-9.171,28.815
			c-10.189,21.61-31.087,24.349-46.788,6.872c-26.964,17.231-41.111,1.817-42.827-20.401c-18.283-2.997-20.967-6.138-24.196-27.655
			c-14.571,1.815-29.111,3.626-44.352,5.525c1.154,8.79,2.307,17.567,3.458,26.346c0.291-0.052,0.58-0.104,0.869-0.155
			c0.967-6.926,1.935-13.852,2.902-20.777c2.72,13.282,11.876,25.409,6.832,40.361c-2.274-1.477-3.727-2.421-6.914-4.493
			c-5.15,13.554-9.927,26.127-14.704,38.699C340.847,446.81,339.754,451.123,338.661,455.435z M673.595,726.513
			c-1.508-17.36-5.877-25.149-19.89-32.097c-7.659-3.796-16.122-6.494-24.526-8.169c-27.145-5.412-53.666,0.166-80.133,5.714
			c-9.367,1.963-18.802,3.603-28.206,5.39c-0.178-0.83-0.357-1.66-0.535-2.491c4.756-1.145,9.513-2.287,15.553-3.74
			c-9.478-11.412-19.406-5.131-29.224-5.312c4.12-2.266,8.24-4.53,11.735-6.451c9.363-48.113,31.525-91.14,51.263-136.068
			c-7.151,1.199-13.135,1.929-18.991,3.233c-22.256,4.956-40.511,13.895-50.637,37.14c-10.959,25.152-24.474,49.364-38.795,72.814
			c-8.63,14.131-20.336,26.579-31.812,38.693c-5.691,6.007-7.499,8.871-1.334,14.884c6.442,6.284,13.335,12.107,20.052,18.108
			c6.734,6.019,13.408,11.935,15.039,21.686c0.25,1.494,4.143,3.455,6.273,3.366c7.8-0.329,15.555-1.71,23.356-2.083
			c2.46-0.118,5.689,0.998,7.411,2.711c10.115,10.062,21.217,16.411,36.353,14.689c15.287-1.741,24.932-9.907,31.621-25.749
			c1.66,20.539,7.528,36.404,28.448,38.959c13.592,1.658,25.402-3.787,32.405-16.091c9.729-17.093-2.579-28.578-10.869-41.59
			c5.057,3.017,9.762,6.513,12.837,11.102c7.904,11.788,9.148,24.46,1.633,37.53c18.179-0.938,33.416-10.91,35.519-25.075
			c1.263-8.507,0.478-18.463-2.939-26.199c-3.438-7.786-11.274-13.631-16.465-19.511
			C661.597,702.972,667.27,714.523,673.595,726.513z M413.085,237.506c14.959-1.1,30.615-2.027,46.217-3.496
			c7.229-0.681,17.531-0.058,20.688-4.304c3.51-4.719,1.265-14.433,0.145-21.762c-5.729-37.46-22.747-68.911-51.757-93.478
			c-9.785-8.287-21.709-10.565-34.259-9.014c-27.115,3.354-42.624,27.45-45.01,51.272c-2.624,26.193,5.917,49.643,18.088,72.033
			c1.611,2.964,6.097,5.668,9.546,6.091C388.536,236.296,400.461,236.671,413.085,237.506z M485.46,233.723
			c17.701-4.796,33.75-8.379,49.243-13.61c10.496-3.543,6.547-13.728,5.96-21.089c-1.589-19.921-8.785-38.284-18.647-55.494
			c-9.92-17.312-21.624-33.119-40.637-41.676c-16.226-7.302-36.176-1.331-44.648,13.479
			C467.876,147.47,487.935,184.453,485.46,233.723z M575.084,435.557c7.675,1.88,15.661,4.277,23.817,5.7
			c6.842,1.193,13.891,1.813,20.834,1.712c25.066-0.363,40.264-12.191,43.446-35.146c2.84-20.482-1.378-39.963-13.637-57.019
			c-6.302-8.766-15.875-12.918-25.971-9.892c-9.713,2.911-19.002,8.092-27.592,13.645c-8.078,5.223-12.292,12.824-10.927,23.689
			c1.062,8.455-0.188,17.436-1.769,25.929C581.355,414.548,578.002,424.657,575.084,435.557z M423.505,690.211
			c0.784,0.29,1.567,0.58,2.351,0.871c1.861-1.284,4.212-2.198,5.504-3.91c9.917-13.145,20.629-25.834,29.152-39.846
			c10.966-18.028,19.994-37.227,30.104-55.787c7.687-14.107,15.757-28.005,23.623-41.936c-15.747,2.276-31.032,5.272-46.452,6.365
			c-7.133,0.507-9.291,3.463-10.962,9.195c-7.171,24.602-14.966,49.029-21.689,73.75
			C430.54,655.816,427.333,673.099,423.505,690.211z M374.208,237.746c10.348,21.546,42.563,35.898,66.429,29.386
			c3.415-0.932,8.547-2.251,9.421-4.653c3.45-9.483,10.787-12.377,19.414-13.625c6.782-0.98,9.92-4.453,9.658-11.719
			c-9.025,0.584-17.705,0.767-26.277,1.825c-6.443,0.795-12.69,3.142-19.131,4.007c-5.88,0.789-11.947,1.048-17.848,0.55
			c-5.331-0.449-10.495-2.646-15.827-3.344C391.475,239.049,382.824,238.525,374.208,237.746z M464.331,391.631
			c0.291,8.264,2.499,15.311,10.055,19.193c6.608,3.395,17.896,1.416,22.91-5.59c5.254-7.34,9.491-15.818,12.273-24.414
			c3.411-10.535,0.543-16.829-6.772-20.926c-9.464-5.301-18.519-4.047-26.171,3.221C468.322,371.003,465.4,381.031,464.331,391.631z
			 M473.438,357.345c-9.758-9.872-21.769-11.028-32.43-3.208c-9.597,7.039-14.71,16.983-16.574,28.453
			c-1.253,7.708-0.548,16.298,6.866,20.084c5.556,2.836,13.131,3.199,19.5,2.351c3.309-0.441,8.594-6.026,8.443-9.061
			C458.501,381.048,464.282,369.021,473.438,357.345z M418.462,380.323c5.869-19.022,15.32-34.496,37.185-37.309
			c-9.044-14.719-19.325-19.897-31.278-16.4c-12.005,3.512-24.629,21.218-24.41,34.236
			C400.108,369.777,406.299,376.694,418.462,380.323z M438.598,100.106c20.063-19.446,38.846-39.425,66.475-47.302
			c-23.33-1.642-44.383,5.047-64.375,15.812c-1.134,0.611-1.978,2.782-2.008,4.246C438.506,81.728,438.598,90.597,438.598,100.106z
			 M481.438,245.452c6.657,3.74,12.801,7.275,19.046,10.622c1.068,0.572,2.612,0.629,3.862,0.438
			c10.662-1.631,30.441-16.31,32.988-32.916c-1.773,0.695-3.235,1.363-4.756,1.851c-13.94,4.48-27.706,9.751-41.933,12.984
			C484.877,239.743,481.901,241.105,481.438,245.452z M469.351,272.859c16.081,1.4,16.896-2.766,22.341-5.775
			c2.135-1.18,5.662-4.042,5.388-5.624c-0.438-2.536-3.223-6.192-5.51-6.6c-7.268-1.297-14.921-2.448-22.122-1.456
			c-5.631,0.775-14.895,2.098-13.067,10.333C457.29,267.836,465.48,270.319,469.351,272.859z M512.871,358.833
			c3.403-6.694,7.557-14.864,12.58-24.747c-13.773,8.253-32.351,0.607-39.722,16.25C494.44,353.064,503.222,355.812,512.871,358.833
			z M552.276,173.479c-7.044-8.221-12.776-14.913-18.51-21.604c-0.674,0.598-1.349,1.196-2.022,1.794
			c5.144,6.241,10.288,12.482,15.432,18.723c-0.458,0.391-0.916,0.781-1.374,1.171c-1.882-1.304-3.763-2.606-7.218-4.999
			c2.088,6.105,3.559,10.401,4.828,14.115c6.094-3.103,11.308-5.759,17.231-8.776c-3.612-4.551-7.294-9.189-10.976-13.827
			c-0.372,0.2-0.743,0.4-1.115,0.6C549.615,164.332,550.68,167.987,552.276,173.479z"/>
		<path fill-rule="evenodd" clip-rule="evenodd" d="M541.927,138.291c17.604-6.646,35.87-5.104,54.022-4.069
			c7.958,0.454,14.975,3.529,21.074,13.328c-12.001-2.483-21.594-5.227-31.369-6.3c-12.81-1.407-25.766-1.474-38.654-2.177
			c-1.707-0.093-3.396-0.542-5.107-0.84C541.879,138.219,541.927,138.291,541.927,138.291z"/>
		<path fill-rule="evenodd" clip-rule="evenodd" d="M537.883,134.056c19.185-16.737,59.762-24.303,71.191-14.427
			c-23.213,4.635-47.281,9.44-71.35,14.245L537.883,134.056z"/>
	</g>
	<path fill-rule="evenodd" clip-rule="evenodd" d="M341.94,442.498c4.195-7.714,8.391-15.427,12.587-23.141
		c0.491,0.242,0.982,0.484,1.473,0.728c-3.499,18.807-6.996,37.612-10.609,57.035c-8.168-6.025-6.747-14.066-6.729-21.686
		C339.754,451.123,340.847,446.81,341.94,442.498z"/>
	<path fill-rule="evenodd" clip-rule="evenodd" d="M193.073,578.009c6.69-5.342,13.38-10.685,20.07-16.026
		c0.493,0.467,0.986,0.934,1.478,1.4c-8.601,13.954-17.201,27.906-25.8,41.859c-0.838-0.136-1.675-0.271-2.512-0.406
		c0.198-4.302,0.008-8.671,0.717-12.887c0.562-3.337,2.229-6.486,3.404-9.719C191.311,580.823,192.192,579.416,193.073,578.009z"/>
	<path fill-rule="evenodd" clip-rule="evenodd" d="M537.904,322.496c-6.402,1.991-12.806,3.982-20.254,6.297
		c15.519-11.927,29.844-22.938,44.168-33.949c0.801,0.655,1.603,1.311,2.403,1.966c-3.604,5.145-7.209,10.291-10.814,15.437
		C548.24,315.663,543.073,319.079,537.904,322.496z"/>
	<path fill-rule="evenodd" clip-rule="evenodd" d="M364.092,432.531c-2.199,15.725-4.029,28.805-6.041,43.181
		C346.649,466.038,352.612,446.425,364.092,432.531z"/>
	<path fill-rule="evenodd" clip-rule="evenodd" d="M379.816,529.296c-16.009-5.965-19.497-20.146-21.381-37.28
		c8.448,12.827,16.021,24.327,23.594,35.828C381.291,528.328,380.553,528.812,379.816,529.296z"/>
	<path fill-rule="evenodd" clip-rule="evenodd" d="M373.952,440.339c-0.989,11.267-1.977,22.534-3.054,34.818
		C360.312,466.295,361.148,456.23,373.952,440.339z"/>
	<path fill-rule="evenodd" clip-rule="evenodd" d="M374.136,405.817c-10.039-11.087-7.799-22.081-5.688-33.064
		C370.383,383.234,379.029,392.664,374.136,405.817z"/>
	<path fill-rule="evenodd" clip-rule="evenodd" d="M388.827,524.857c-12.124-5.033-15.27-15.73-15.255-28.424
		c5.813,9.012,11.627,18.022,17.441,27.034C390.284,523.931,389.555,524.395,388.827,524.857z"/>
	<path fill-rule="evenodd" clip-rule="evenodd" d="M382.599,445.404c0,8.423,0,16.733,0,26.595
		C374.662,462.863,375.183,454.729,382.599,445.404z"/>
	<path fill-rule="evenodd" clip-rule="evenodd" d="M380.065,375.206c2.633,9.949,4.804,18.154,7.503,28.356
		C378.007,396.409,375.699,386.687,380.065,375.206z"/>
	<path fill-rule="evenodd" clip-rule="evenodd" d="M385.703,498.509c4.488,6.302,8.977,12.604,14.535,20.407
		C389.517,516.673,387.482,513.677,385.703,498.509z"/>
	<path fill-rule="evenodd" clip-rule="evenodd" d="M392.029,397.413c-1.493-5.97-2.986-11.94-4.479-17.911
		c0.904-0.239,1.806-0.477,2.709-0.716c1.983,5.96,3.966,11.921,5.95,17.881C394.815,396.916,393.422,397.165,392.029,397.413z"/>
	<path fill-rule="evenodd" clip-rule="evenodd" d="M263.95,292.12c17.221,15.911,34.054,31.463,51.686,47.753
		C298.582,342.759,269.303,314.637,263.95,292.12z"/>
	<path fill-rule="evenodd" clip-rule="evenodd" d="M266.064,201.048c-3.157-17.465,18.67-44.795,40.851-54.428
		C292.955,165.221,279.51,183.134,266.064,201.048z"/>
	<path fill-rule="evenodd" clip-rule="evenodd" d="M576.161,230.329c11.003,13.694,6.766,42.801-5.83,57.201
		C572.151,269.673,574.066,250.889,576.161,230.329z"/>
	<path fill-rule="evenodd" clip-rule="evenodd" d="M267.62,222.476c1.983,16.687,3.968,33.374,6.072,51.072
		C260.602,267.97,258.182,247.219,267.62,222.476z"/>
	<path fill-rule="evenodd" clip-rule="evenodd" d="M278.402,204.159c1.104-20.222,14.736-31.988,29.597-42.919
		C299.643,176.507,292.897,192.847,278.402,204.159z"/>
	<path fill-rule="evenodd" clip-rule="evenodd" d="M314.446,320.697c-13.869,2.747-21.696-4.217-33.801-29.039
		C291.913,301.338,303.179,311.018,314.446,320.697z"/>
	<path fill-rule="evenodd" clip-rule="evenodd" d="M292.779,205.736c1.263-12.121,7.367-21.072,17.468-27.446
		C306.316,188.629,304.498,200.25,292.779,205.736z"/>
	<path fill-rule="evenodd" clip-rule="evenodd" d="M277.803,228.271c2.4,10.717,4.799,21.433,7.199,32.15
		c-1.129,0.227-2.257,0.453-3.385,0.68C270.219,252.13,274.894,240.03,277.803,228.271z"/>
	<path fill-rule="evenodd" clip-rule="evenodd" d="M335.528,335.597c12.104,0,22.274,0,32.444,0
		C357.647,345.222,347.558,340.728,335.528,335.597z"/>
	<path fill-rule="evenodd" clip-rule="evenodd" d="M292.864,287.851c8.912,7.083,15.88,12.623,24.655,19.599
		C305.285,307.897,297.852,301.733,292.864,287.851z"/>
	<path fill-rule="evenodd" clip-rule="evenodd" d="M570.437,255.908c-1.689,9.003-3.379,18.006-5.069,27.008
		c-1.094-0.192-2.188-0.384-3.283-0.576c1.11-9.096,2.223-18.193,3.333-27.289C567.09,255.337,568.764,255.622,570.437,255.908z"/>
	<path fill-rule="evenodd" clip-rule="evenodd" d="M541.079,299.057c-3.13,12.708-13.463,15.862-23.924,18.851
		C525.13,311.625,533.104,305.341,541.079,299.057z"/>
	<path fill-rule="evenodd" clip-rule="evenodd" d="M274.141,544.467c-8.299,1.926-16.742,3.39-24.857,5.909
		c-7.835,2.432-15.333,5.95-23.333,7.94C237.75,539.738,255.896,541.701,274.141,544.467z"/>
	<path fill-rule="evenodd" clip-rule="evenodd" d="M268.729,554.155c-11.129,4.707-21.747,9.197-33.938,14.353
		C241.489,555.177,252.463,550.951,268.729,554.155z"/>
	<path fill-rule="evenodd" clip-rule="evenodd" d="M215.799,577.913c-4.06,8.034-8.121,16.067-12.181,24.101
		c-1.002-0.511-2.006-1.021-3.009-1.531C199.498,589.803,206.425,583.176,215.799,577.913z"/>
	<path fill-rule="evenodd" clip-rule="evenodd" d="M307.393,558.097c8.71-1.581,17.421-3.162,26.132-4.744
		C325.385,557.8,317.953,565.77,307.393,558.097z"/>
</g>
</svg>
