<?xml version="1.0" encoding="utf-8"?><svg version="1.1" id="svg" xmlns="http://www.w3.org/2000/svg" xmlns:xlink="http://www.w3.org/1999/xlink" x="0px" y="0px" width="1200px" height="1200px" viewBox="0 0 1200 1200" style="enable-background:new 0 0 1200 1200;" xml:space="preserve"><title>Smiling Cute Cloud icon logo - free.arinco.org</title><style><![CDATA[#arinco-group{fill:#999;}#cheeks{fill:#FAA;filter:url(#filter-cheeks);}#cloud{fill:#D5E5FF;}]]></style><filter x="-.48" y="-.48" width="1.96" height="1.96" id="filter-cheeks" color-interpolation-filters="sRGB"><feGaussianBlur stdDeviation="13.142858"></feGaussianBlur></filter><a id="arinco-group" xlink:href="http://free.arinco.org/"><path d="M560.132,161.093c-79.791,0.029-156.015,51.673-187.143,124.657 c-52.56-37.896-126.164-35.334-181.917-5.67C136.708,306.77,90.447,358.037,84.301,420.215 c-1.259,16.521,1.921,32.988,6.066,48.883C24.312,502.615-15.896,584.708,6.006,657.13c10.243,33.029,34.494,60.797,64.545,77.158 c-25.197,41.343-41.354,93.904-24.447,141.435c18.506,47.705,71.606,74.15,121.2,71.989c27.131-0.11,53.927-6.292,79.364-15.418 c55.315,84.348,168.119,126.439,265.16,97.675c38.217-12.459,72.601-37.033,95.72-69.923 c75.438,51.33,179.135,50.389,258.674,8.694c54.465-29.52,96.75-86.444,99.06-149.678c-2.093-7.075,6.465-2.447,10.079-4.35 c99.695-10.994,181.157-105.813,177.13-206.198c0.619-9.073-5.043-21.533,5.004-26.791 c45.207-40.626,55.787-113.943,24.821-166.113c-27.797-52.406-84.807-87.29-143.868-89.778 c-4.292-74.464-62.963-139.207-134.356-157.136c-70.945-19.864-153.016,0.377-203.626,54.114 c-33.81-40.979-87.482-63.21-140.329-61.722L560.132,161.093z"/><path id="cloud" d="M564.047,180.456c-76.469-0.354-156.938,47.579-181.935,139.419 C274.157,202.078,47.298,350.201,116.371,478.807C1.573,522.867-20.098,683.452,99.286,725.445 C-9.307,883.524,117.558,970.354,254.679,907.687c57.851,115.259,266.211,170.061,347.53,23.556 c104.68,96.19,350.749,48.335,344.359-135.224c102.078,6.77,205.373-93.108,183.552-217.473 c108.699-77.51,28.194-242.158-111.364-232.63c8.519-158.058-211.795-230.592-320.03-91.496 c-29.091-49.54-80.866-73.707-134.667-73.956L564.047,180.456z"/><circle cx="417.051" cy="593.386" r="22.889"/><circle cx="806.057" cy="564.007" r="22.889"/><path id="mouth" d="M716.993,678.117l-14.963,3.438l-1.011,1.264c1.384,17.449-0.001,35.359-5.965,51.764 c-8.438,30.302-43.032,45.054-72.339,39.632c-38.535-5.331-64.066-41.387-73.551-76.433l-15.61,3.607 c10.033,35.132,30.733,68.765,65.312,82.953c32.438,12.563,75.258,8.483,97.966-19.766c18.73-24.201,22.689-56.308,20.171-86.442 L716.993,678.117z"/><g id="cheeks"><path d="M432.954,784.078c0.014,29.354-23.771,53.161-53.125,53.176c-29.354,0.014-53.161-23.771-53.176-53.125 c0-0.017,0-0.034,0-0.051c-0.014-29.354,23.771-53.162,53.125-53.176c29.354-0.015,53.161,23.771,53.176,53.124 C432.954,784.044,432.954,784.061,432.954,784.078z"/><path d="M978.32,682.398c0.015,29.354-23.771,53.162-53.124,53.176c-29.354,0.015-53.162-23.771-53.176-53.124 c0-0.018,0-0.034,0-0.052c-0.015-29.354,23.77-53.161,53.124-53.176c29.354-0.014,53.161,23.771,53.176,53.125 C978.32,682.364,978.32,682.382,978.32,682.398z"/></g></a></svg>